STARTFONT 2.1
FONT -Monotype-Century Gothic-Bold-R-Normal--50-360-100-100-P-264-iso8859-9
SIZE 36 100 100
FONTBOUNDINGBOX 72 61 -7 -11

STARTPROPERTIES 24
FOUNDRY "Monotype"
FAMILY_NAME "Century Gothic"
WEIGHT_NAME "Bold"
SLANT "R"
SETWIDTH_NAME "Normal"
ADD_STYLE_NAME ""
PIXEL_SIZE 50
POINT_SIZE 360
RESOLUTION_X 100
RESOLUTION_Y 100
SPACING "P"
AVERAGE_WIDTH 264
CHARSET_REGISTRY "iso8859"
CHARSET_ENCODING "9"
FACE_NAME "Century Gothic Bold ISO Latin5"
_DEC_DEVICE_FONTNAMES "PS=centurygothic-b-lat5"
COPYRIGHT "Copyright (c) 1993 Monotype Typography Ltd."
CAP_HEIGHT 46
X_HEIGHT 34
WEIGHT 10
QUAD_WIDTH 33
DEFAULT_CHAR 160
FONT_DESCENT 13
FONT_ASCENT 52
ENDPROPERTIES

CHARS 191

STARTCHAR space
ENCODING 32
SWIDTH 280 0
DWIDTH 14 0
BBX 0 0 0 0
BITMAP
ENDCHAR

STARTCHAR exclam
ENCODING 33
SWIDTH 280 0
DWIDTH 14 0
BBX 12 38 1 -1
BITMAP
3F80
3F80
3F80
3F80
3F80
3F80
3F80
3F80
3F80
3F80
3F80
3F80
3F80
3F80
3F80
3F80
3F80
3F80
3F80
3F80
3F80
3F80
3F80
3F80
3F80
3F80
3F80
0000
0000
0000
0F00
1F80
3FC0
3FC0
3FC0
3FC0
1F80
0F00
ENDCHAR

STARTCHAR quotedbl
ENCODING 34
SWIDTH 360 0
DWIDTH 18 0
BBX 20 12 -1 25
BITMAP
3F0FC0
3F0FC0
3F0FC0
3F0FC0
3F0FC0
3F0FC0
3F07C0
1E0780
1E0780
1E0780
1E0780
1E0780
ENDCHAR

STARTCHAR numbersign
ENCODING 35
SWIDTH 600 0
DWIDTH 30 0
BBX 30 37 0 0
BITMAP
001E0F80
001E0F80
003E0F80
003E0F80
003E0F80
003E1F00
003E1F00
003C1F00
003C1F00
007C1F00
007C1F00
1FFFFFF8
1FFFFFF8
1FFFFFF8
1FFFFFF8
1FFFFFF8
00F83E00
00F83E00
00F83E00
00F87C00
3FFFFFE0
3FFFFFE0
3FFFFFE0
3FFFFFE0
3FFFFFE0
01F07800
01F0F800
01F0F800
01E0F800
03E0F800
03E0F800
03E0F800
03E0F000
03E1F000
03E1F000
03C1F000
07C1F000
ENDCHAR

STARTCHAR dollar
ENCODING 36
SWIDTH 560 0
DWIDTH 28 0
BBX 28 48 0 -8
BITMAP
0007C000
0007C000
0007C000
007FF000
01FFFC00
03FFFE00
07FFFF00
0FFFFF80
0FFFFF80
0FF07F00
1FE01E00
1FC00C00
1FC00000
1FC00000
0FE00000
0FF00000
0FFC0000
07FF0000
03FFE000
01FFF800
00FFFC00
003FFF00
000FFF00
0003FF80
0000FFC0
00003FC0
00001FC0
00000FE0
00000FE0
00000FE0
02000FE0
07000FE0
0F800FE0
1FC01FC0
3FF87FC0
3FFFFFC0
1FFFFF80
0FFFFF00
03FFFE00
01FFFC00
003FF000
0007C000
0007C000
0007C000
0007C000
0007C000
0007C000
0007C000
ENDCHAR

STARTCHAR percent
ENCODING 37
SWIDTH 860 0
DWIDTH 43 0
BBX 45 41 -1 -3
BITMAP
00000000FE00
01FF0007FC00
07FFFFFFF800
0FFFFFFFF000
1FFFFFFFF000
1F8FFFFBE000
3F03E007C000
3E03E00FC000
3C01E00F8000
3C01E01F0000
3C01E03F0000
3E03E03E0000
3F07E07C0000
1F8FC0F80000
1FFFC0F80000
0FFF81F00000
07FF03E00000
01FC03E00000
000007C00000
00000F800000
00001F800000
00001F000000
00003E01FC00
00007C07FF00
00007C0FFF80
0000F81FFFC0
0001F01F8FC0
0001F03F03E0
0003E03E03E0
0007C03C01E0
0007C03C01E0
000F803C01E0
001F003E03E0
003E003F03E0
003E001F8FC0
007C001FFFC0
00F8000FFF80
00F80007FF00
01F00001FC00
03E000000000
03E000000000
ENDCHAR

STARTCHAR ampersand
ENCODING 38
SWIDTH 680 0
DWIDTH 34 0
BBX 34 35 0 -1
BITMAP
001F800000
007FE00000
00FFF80000
01FFF80000
03FFFC0000
03FFFC0000
07F9FE0000
07F0FE0000
07F0FE0000
07F0FE0000
07F1FC0000
03F9FC0000
03FFF80000
01FFF00000
01FFE00000
00FFC00000
00FF800000
03FF800000
07FFC00000
07FFE00000
0FFFF02000
1FE7F87000
1FC7FCF800
3F83FFFC00
3F81FFFE00
3F00FFFC00
3F007FF800
3F807FE000
3FC3FFF000
3FFFFFF000
1FFFFFF800
1FFFFFFC00
0FFFF9FE00
03FFC0FF00
00FF000000
ENDCHAR

STARTCHAR quoteright
ENCODING 39
SWIDTH 280 0
DWIDTH 14 0
BBX 10 14 2 23
BITMAP
3F00
3F00
3F00
3F00
3F00
3F00
3F00
0F00
0E00
0E00
1E00
1C00
1C00
0800
ENDCHAR

STARTCHAR parenleft
ENCODING 40
SWIDTH 380 0
DWIDTH 19 0
BBX 18 48 1 -11
BITMAP
00FF00
01FE00
01FC00
03FC00
07F800
07F000
0FF000
0FE000
0FE000
1FE000
1FC000
1FC000
3F8000
3F8000
3F8000
3F8000
3F8000
7F0000
7F0000
7F0000
7F0000
7F0000
7F0000
7F0000
7F0000
7F0000
7F0000
7F0000
7F0000
7F0000
7F0000
3F8000
3F8000
3F8000
3F8000
3FC000
1FC000
1FC000
1FE000
0FE000
0FF000
07F000
07F800
03F800
03FC00
01FE00
01FE00
00FF00
ENDCHAR

STARTCHAR parenright
ENCODING 41
SWIDTH 380 0
DWIDTH 19 0
BBX 18 48 0 -11
BITMAP
3FC000
1FE000
1FE000
0FF000
07F800
07F800
03FC00
01FC00
01FC00
00FE00
00FE00
00FE00
007F00
007F00
007F00
007F00
003F00
003F80
003F80
003F80
003F80
003F80
003F80
003F80
003F80
003F80
003F80
003F80
003F80
003F80
003F80
003F80
007F00
007F00
007F00
007F00
00FE00
00FE00
00FE00
01FC00
01FC00
03FC00
03F800
07F800
0FF000
0FE000
1FE000
3FC000
ENDCHAR

STARTCHAR asterisk
ENCODING 42
SWIDTH 440 0
DWIDTH 22 0
BBX 22 19 0 18
BITMAP
00FC00
00FC00
087C00
0C78E0
1E79E0
3F7BF0
3FBFF0
3FFFF8
07FF80
00FC00
07FF80
3FFFF8
3FB7F0
3F7BF0
1E79E0
0C78C0
087840
00FC00
00FC00
ENDCHAR

STARTCHAR plus
ENCODING 43
SWIDTH 600 0
DWIDTH 30 0
BBX 28 24 1 6
BITMAP
001F8000
001F8000
001F8000
001F8000
001F8000
001F8000
001F8000
001F8000
001F8000
3FFFFFC0
3FFFFFC0
3FFFFFC0
3FFFFFC0
3FFFFFC0
3FFFFFC0
001F8000
001F8000
001F8000
001F8000
001F8000
001F8000
001F8000
001F8000
001F8000
ENDCHAR

STARTCHAR comma
ENCODING 44
SWIDTH 280 0
DWIDTH 14 0
BBX 13 12 0 -6
BITMAP
0380
03E0
07E0
07C0
0FC0
0F80
0F00
1F00
1E00
3E00
3C00
0C00
ENDCHAR

STARTCHAR minus
ENCODING 45
SWIDTH 600 0
DWIDTH 30 0
BBX 28 6 1 15
BITMAP
3FFFFFC0
3FFFFFC0
3FFFFFC0
3FFFFFC0
3FFFFFC0
3FFFFFC0
ENDCHAR

STARTCHAR period
ENCODING 46
SWIDTH 280 0
DWIDTH 14 0
BBX 10 8 2 -1
BITMAP
1E00
3F00
3F80
7F80
7F80
3F80
3F00
0E00
ENDCHAR

STARTCHAR slash
ENCODING 47
SWIDTH 460 0
DWIDTH 23 0
BBX 23 43 0 -6
BITMAP
00007C
000078
0000F8
0000F8
0000F0
0001F0
0001E0
0003E0
0003E0
0003C0
0007C0
0007C0
000780
000F80
000F00
001F00
001F00
001E00
003E00
003E00
003C00
007C00
007800
00F800
00F800
00F000
01F000
01F000
01E000
03E000
03C000
07C000
07C000
078000
0F8000
0F8000
0F0000
1F0000
1E0000
3E0000
3E0000
3C0000
7C0000
ENDCHAR

STARTCHAR zero
ENCODING 48
SWIDTH 560 0
DWIDTH 28 0
BBX 27 38 1 -1
BITMAP
007FC000
01FFF000
03FFF800
07FFFC00
0FFFFE00
0FFFFE00
1FF1FF00
1FC07F00
3FC07F80
3F803F80
3F803F80
3F801F80
3F001F80
7F001FC0
7F001FC0
7F001FC0
7F001FC0
7F001FC0
7F001FC0
7F001FC0
7F001FC0
7F001FC0
7F001FC0
7F001FC0
7F001FC0
3F001F80
3F801F80
3F803F80
3F803F80
3FC07F80
1FE07F00
1FF1FF00
0FFFFE00
0FFFFE00
07FFFC00
03FFF800
01FFF000
007FC000
ENDCHAR

STARTCHAR one
ENCODING 49
SWIDTH 560 0
DWIDTH 28 0
BBX 17 36 3 0
BITMAP
03FF00
07FF00
0FFF00
0FFF00
1FFF00
3FFF00
3FFF00
007F00
007F00
007F00
007F00
007F00
007F00
007F00
007F00
007F00
007F00
007F00
007F00
007F00
007F00
007F00
007F00
007F00
007F00
007F00
007F00
007F00
007F00
007F00
007F00
007F00
007F00
007F00
007F00
007F00
ENDCHAR

STARTCHAR two
ENCODING 50
SWIDTH 560 0
DWIDTH 28 0
BBX 28 37 0 0
BITMAP
003FE000
00FFF800
01FFFC00
03FFFE00
07FFFF00
0FFFFF80
0FF0FF80
1FE03F80
1FC03FC0
1FC01FC0
1F801FC0
3F801FC0
00001FC0
00001FC0
00003F80
00003F80
00007F80
00007F00
0000FF00
0001FE00
0003FC00
0007FC00
000FF800
001FF000
003FE000
007FC000
00FF8000
01FF0000
01FF0000
03FE0000
07FC0000
0FFFFFC0
1FFFFFC0
3FFFFFC0
7FFFFFC0
7FFFFFC0
7FFFFFC0
ENDCHAR

STARTCHAR three
ENCODING 51
SWIDTH 560 0
DWIDTH 28 0
BBX 27 38 0 -1
BITMAP
001F0000
00FFE000
01FFF000
07FFFC00
07FFFC00
0FFFFE00
1FFFFE00
1FE0FF00
1FC07F00
1F807F00
00007F00
00007F00
0000FF00
0001FE00
0007FC00
001FFC00
001FF000
001FF000
001FFC00
001FFE00
001FFF00
0000FF80
00007F80
00003F80
00001FC0
00001FC0
7F001FC0
7F001FC0
7F801FC0
3F803F80
3FC07F80
3FE0FF80
1FFFFF00
0FFFFE00
0FFFFE00
07FFF800
01FFF000
007F8000
ENDCHAR

STARTCHAR four
ENCODING 52
SWIDTH 560 0
DWIDTH 28 0
BBX 29 37 0 0
BITMAP
00007F00
0000FF00
0001FF00
0001FF00
0003FF00
0007FF00
0007FF00
000FFF00
001FFF00
001FFF00
003FFF00
007FFF00
007F7F00
00FE7F00
01FE7F00
01FC7F00
03F87F00
07F87F00
07F07F00
0FE07F00
1FE07F00
3FC07F00
3F807F00
3FFFFFE0
3FFFFFE0
3FFFFFE0
3FFFFFE0
3FFFFFE0
3FFFFFE0
00007F00
00007F00
00007F00
00007F00
00007F00
00007F00
00007F00
00007F00
ENDCHAR

STARTCHAR five
ENCODING 53
SWIDTH 560 0
DWIDTH 28 0
BBX 27 37 0 -1
BITMAP
00FFFF80
00FFFF80
00FFFF80
00FFFF80
00FFFF80
01FFFF80
01FC0000
01F80000
01F80000
01F80000
03F80000
03F80000
03F00000
03FFE000
07FFF800
07FFFC00
07FFFE00
07FFFF00
07FFFF00
0FF0FF80
03E07F80
00003FC0
00001FC0
00001FC0
00001FC0
00001FC0
00001FC0
7F801FC0
3F803F80
3FC07F80
3FF1FF00
1FFFFF00
0FFFFE00
07FFFC00
03FFF800
01FFF000
007F8000
ENDCHAR

STARTCHAR six
ENCODING 54
SWIDTH 560 0
DWIDTH 28 0
BBX 25 38 1 -1
BITMAP
00040000
00070000
000FC000
000FE000
001FC000
001FC000
003F8000
003F8000
007F0000
00FF0000
00FE0000
01FE0000
01FC0000
03FC0000
03F80000
07FE0000
07FFC000
0FFFF000
0FFFF800
1FFFF800
1FFFFC00
3FFFFE00
3FC1FE00
3F80FE00
7F007F00
7F007F00
7F007F00
7F007F00
7F007F00
3F80FF00
3F80FE00
3FE3FE00
1FFFFC00
1FFFFC00
0FFFF800
07FFF000
01FFE000
007F0000
ENDCHAR

STARTCHAR seven
ENCODING 55
SWIDTH 560 0
DWIDTH 28 0
BBX 26 37 2 -1
BITMAP
7FFFFF80
7FFFFF80
7FFFFF80
7FFFFF80
7FFFFF00
7FFFFF00
7FFFFE00
0000FE00
0001FC00
0001FC00
0003F800
0003F800
0007F000
0007F000
000FE000
000FE000
001FC000
001FC000
003F8000
003F8000
007F0000
007F0000
00FE0000
00FE0000
01FC0000
01FC0000
03FC0000
03F80000
07F80000
07F00000
0FF00000
0FE00000
1FE00000
1FC00000
1FC00000
07800000
01800000
ENDCHAR

STARTCHAR eight
ENCODING 56
SWIDTH 560 0
DWIDTH 28 0
BBX 27 38 0 -1
BITMAP
001F0000
00FFE000
01FFF000
03FFF800
07FFFC00
0FFFFE00
0FFFFE00
0FE0FF00
1FC07F00
1FC07F00
1FC07F00
1FC07F00
1FC07F00
0FE0FE00
0FF1FE00
0FFFFC00
07FFF800
03FFF800
07FFFC00
0FFFFE00
1FFFFF00
1FF0FF00
3FC07F80
3F803F80
3F001F80
7F001FC0
7F001FC0
7F001FC0
7F001FC0
7F803FC0
3FC07F80
3FF1FF80
3FFFFF80
1FFFFF00
0FFFFE00
07FFFC00
03FFF800
00FFE000
ENDCHAR

STARTCHAR nine
ENCODING 57
SWIDTH 560 0
DWIDTH 28 0
BBX 25 38 2 -1
BITMAP
007F0000
01FFE000
07FFF000
0FFFF800
1FFFFC00
1FFFFC00
3FE3FE00
3F80FE00
7F80FF00
7F007F00
7F007F00
7F007F00
7F007F00
7F007F00
3F80FE00
3FC1FE00
3FFFFE00
1FFFFC00
0FFFFC00
0FFFF800
03FFF800
01FFF000
001FF000
000FE000
001FE000
001FC000
003FC000
003F8000
007F8000
007F0000
00FF0000
00FE0000
01FE0000
01FC0000
03F80000
01F80000
00700000
00100000
ENDCHAR

STARTCHAR colon
ENCODING 58
SWIDTH 280 0
DWIDTH 14 0
BBX 10 29 2 -1
BITMAP
0E00
3F00
3F80
7F80
7F80
7F80
3F00
1E00
0000
0000
0000
0000
0000
0000
0000
0000
0000
0000
0000
0000
0000
1E00
3F00
3F80
7F80
7F80
3F80
3F00
0E00
ENDCHAR

STARTCHAR semicolon
ENCODING 59
SWIDTH 280 0
DWIDTH 14 0
BBX 13 33 0 -5
BITMAP
0380
0FC0
0FE0
1FE0
1FE0
0FE0
0FC0
0380
0000
0000
0000
0000
0000
0000
0000
0000
0000
0000
0000
0000
0000
0300
03C0
07E0
07C0
07C0
0F80
0F80
1F00
1F00
1E00
3C00
1C00
ENDCHAR

STARTCHAR less
ENCODING 60
SWIDTH 600 0
DWIDTH 30 0
BBX 28 30 1 3
BITMAP
00000040
000001C0
000007C0
00001FC0
00007FC0
0001FFC0
0007FF80
001FFE00
007FF800
01FFE000
03FFC000
0FFF0000
3FFC0000
3FF00000
3FC00000
3FC00000
3FF00000
3FFC0000
1FFE0000
07FF8000
01FFE000
007FF800
001FFE00
0007FF80
0001FFC0
00007FC0
00001FC0
000007C0
000001C0
00000040
ENDCHAR

STARTCHAR equal
ENCODING 61
SWIDTH 600 0
DWIDTH 30 0
BBX 28 16 1 10
BITMAP
3FFFFFC0
3FFFFFC0
3FFFFFC0
3FFFFFC0
3FFFFFC0
3FFFFFC0
00000000
00000000
00000000
00000000
3FFFFFC0
3FFFFFC0
3FFFFFC0
3FFFFFC0
3FFFFFC0
3FFFFFC0
ENDCHAR

STARTCHAR greater
ENCODING 62
SWIDTH 600 0
DWIDTH 30 0
BBX 28 30 1 3
BITMAP
20000000
38000000
3E000000
3F800000
3FE00000
3FF80000
1FFE0000
07FF8000
01FFE000
007FF800
003FFE00
000FFF80
0003FFC0
0000FFC0
00003FC0
00003FC0
0000FFC0
0001FFC0
0007FF80
001FFE00
007FF800
01FFE000
07FF8000
1FFE0000
3FF80000
3FE00000
3F800000
3E000000
38000000
20000000
ENDCHAR

STARTCHAR question
ENCODING 63
SWIDTH 560 0
DWIDTH 28 0
BBX 26 38 1 -1
BITMAP
003FC000
01FFF000
03FFF800
07FFFC00
0FFFFE00
1FFFFF00
1FE0FF00
3FC07F80
3F803F80
3F003F80
3F003F80
00003F80
00007F00
0000FF00
0001FF00
0003FE00
0007FC00
000FF800
000FF000
001FE000
001FC000
003F8000
003F8000
003F8000
003F0000
003F0000
003F0000
00000000
00000000
00000000
001E0000
003F0000
007F8000
007F8000
007F8000
007F8000
003F0000
001E0000
ENDCHAR

STARTCHAR at
ENCODING 64
SWIDTH 740 0
DWIDTH 37 0
BBX 40 39 -1 -1
BITMAP
00007F0000
0007FFF000
001FFFFC00
007FFFFF00
00FE003F80
01F8000FC0
03E00003E0
07C00001F0
0F800000F0
0F00380078
1E01FF3E78
1E07FFBE3C
3C0FFFFE3C
3C1FFFFC3C
381FFFFC1C
383FC3FC1C
783F81FC1C
783F00FC1C
787E00FC1C
787E00F81C
787E00F83C
787E00F838
387F01F838
387F03F870
3C3FC7F0F0
3C3FFFF0E0
1E1FFFFBC0
1E1FFFFF80
1F0FFDFE00
0F03F1F800
0780000000
07C00003E0
03F00007C0
01FC001F80
00FF007F00
003FFFFE00
001FFFFC00
0003FFF000
00007F0000
ENDCHAR

STARTCHAR A
ENCODING 65
SWIDTH 740 0
DWIDTH 37 0
BBX 37 36 0 0
BITMAP
0001FC0000
0001FE0000
0003FE0000
0003FE0000
0007FF0000
0007FF0000
0007FF0000
000FFF8000
000FFF8000
001FFFC000
001FDFC000
001FDFC000
003F8FE000
003F8FE000
003F8FF000
007F07F000
007F07F000
00FF03F800
00FE03F800
00FE03F800
01FC01FC00
01FC01FC00
03FFFFFE00
03FFFFFE00
03FFFFFE00
07FFFFFF00
07FFFFFF00
07FFFFFF80
0FFFFFFF80
0FE0003F80
1FE0001FC0
1FC0001FC0
1FC0001FE0
3F80000FE0
3F80000FE0
7F800007F0
ENDCHAR

STARTCHAR B
ENCODING 66
SWIDTH 580 0
DWIDTH 29 0
BBX 25 36 3 0
BITMAP
7FF00000
7FFF0000
7FFF8000
7FFFE000
7FFFE000
7FFFF000
7FFFF000
7F07F800
7F03F800
7F03F800
7F03F800
7F03F800
7F03F000
7F0FF000
7FFFE000
7FFFC000
7FFFC000
7FFFF000
7FFFF800
7FFFFC00
7F07FC00
7F01FE00
7F00FE00
7F007F00
7F007F00
7F007F00
7F007F00
7F00FF00
7F01FE00
7FFFFE00
7FFFFC00
7FFFFC00
7FFFF800
7FFFF000
7FFFC000
7FFE0000
ENDCHAR

STARTCHAR C
ENCODING 67
SWIDTH 780 0
DWIDTH 39 0
BBX 37 38 1 -1
BITMAP
00007F0000
0007FFF000
001FFFFC00
007FFFFF00
00FFFFFF80
01FFFFFFC0
03FFFFFFE0
07FF00FFF0
0FFC001FE0
0FF0000FC0
1FE0000380
1FC0000100
3FC0000000
3F80000000
3F80000000
7F00000000
7F00000000
7F00000000
7F00000000
7F00000000
7F00000000
7F00000000
7F00000000
3F80000000
3F80000000
3FC0000000
1FC0000100
1FE0000380
0FF0000F80
0FFC001FC0
07FF007FE0
03FFFFFFE0
03FFFFFFC0
00FFFFFF80
007FFFFE00
001FFFFC00
0007FFF000
00007F0000
ENDCHAR

STARTCHAR D
ENCODING 68
SWIDTH 700 0
DWIDTH 35 0
BBX 32 36 3 0
BITMAP
7FFF0000
7FFFF000
7FFFFC00
7FFFFE00
7FFFFF80
7FFFFFC0
7FFFFFC0
7F00FFE0
7F003FF0
7F000FF0
7F0007F8
7F0007F8
7F0003F8
7F0003FC
7F0001FC
7F0001FC
7F0001FC
7F0001FC
7F0001FC
7F0001FC
7F0001FC
7F0001FC
7F0003FC
7F0003F8
7F0003F8
7F0007F8
7F000FF0
7F001FF0
7F007FE0
7FFFFFE0
7FFFFFC0
7FFFFF80
7FFFFF00
7FFFFC00
7FFFF000
7FFF8000
ENDCHAR

STARTCHAR E
ENCODING 69
SWIDTH 520 0
DWIDTH 26 0
BBX 22 36 3 0
BITMAP
7FFFF8
7FFFF8
7FFFF8
7FFFF8
7FFFF8
7FFFF8
7FFFF8
7F0000
7F0000
7F0000
7F0000
7F0000
7F0000
7FFFF8
7FFFF8
7FFFF8
7FFFF8
7FFFF8
7FFFF8
7FFFF8
7F0000
7F0000
7F0000
7F0000
7F0000
7F0000
7F0000
7F0000
7F0000
7FFFF8
7FFFF8
7FFFF8
7FFFF8
7FFFF8
7FFFF8
7FFFF8
ENDCHAR

STARTCHAR F
ENCODING 70
SWIDTH 480 0
DWIDTH 24 0
BBX 21 36 3 0
BITMAP
7FFFE0
7FFFE0
7FFFE0
7FFFE0
7FFFE0
7FFFE0
7FFFE0
7F0000
7F0000
7F0000
7F0000
7F0000
7F0000
7FFFE0
7FFFE0
7FFFE0
7FFFE0
7FFFE0
7FFFE0
7FFFE0
7F0000
7F0000
7F0000
7F0000
7F0000
7F0000
7F0000
7F0000
7F0000
7F0000
7F0000
7F0000
7F0000
7F0000
7F0000
7F0000
ENDCHAR

STARTCHAR G
ENCODING 71
SWIDTH 840 0
DWIDTH 42 0
BBX 40 38 1 -1
BITMAP
00007F0000
0007FFF800
001FFFFE00
007FFFFF80
00FFFFFFC0
01FFFFFFE0
03FFFFFFF0
07FF007FF0
0FFC000FE0
0FF0000780
1FE0000100
1FC0000000
3FC0000000
3F80000000
3F80000000
7F00000000
7F00000000
7F00000000
7F0007FFFE
7F0007FFFE
7F0007FFFE
7F0007FFFE
3F8007FFFE
3F8007FFFC
3FC007FFFC
3FC00001FC
1FE00003FC
1FF00003F8
0FF80007F8
0FFE001FF0
07FF807FF0
03FFFFFFE0
01FFFFFFC0
00FFFFFF80
003FFFFF00
001FFFFC00
0003FFF000
00003F0000
ENDCHAR

STARTCHAR H
ENCODING 72
SWIDTH 680 0
DWIDTH 34 0
BBX 28 36 3 0
BITMAP
7F000FE0
7F000FE0
7F000FE0
7F000FE0
7F000FE0
7F000FE0
7F000FE0
7F000FE0
7F000FE0
7F000FE0
7F000FE0
7F000FE0
7F000FE0
7FFFFFE0
7FFFFFE0
7FFFFFE0
7FFFFFE0
7FFFFFE0
7FFFFFE0
7FFFFFE0
7F000FE0
7F000FE0
7F000FE0
7F000FE0
7F000FE0
7F000FE0
7F000FE0
7F000FE0
7F000FE0
7F000FE0
7F000FE0
7F000FE0
7F000FE0
7F000FE0
7F000FE0
7F000FE0
ENDCHAR

STARTCHAR I
ENCODING 73
SWIDTH 280 0
DWIDTH 14 0
BBX 9 36 3 0
BITMAP
7F00
7F00
7F00
7F00
7F00
7F00
7F00
7F00
7F00
7F00
7F00
7F00
7F00
7F00
7F00
7F00
7F00
7F00
7F00
7F00
7F00
7F00
7F00
7F00
7F00
7F00
7F00
7F00
7F00
7F00
7F00
7F00
7F00
7F00
7F00
7F00
ENDCHAR

STARTCHAR J
ENCODING 74
SWIDTH 480 0
DWIDTH 24 0
BBX 22 37 -1 -1
BITMAP
0003F8
0003F8
0003F8
0003F8
0003F8
0003F8
0003F8
0003F8
0003F8
0003F8
0003F8
0003F8
0003F8
0003F8
0003F8
0003F8
0003F8
0003F8
0003F8
0003F8
0003F8
0003F8
0003F8
0003F8
0003F8
0003F8
0003F8
0203F8
0703F8
0FC7F8
1FFFF0
3FFFF0
1FFFF0
0FFFE0
07FFC0
01FF80
007C00
ENDCHAR

STARTCHAR K
ENCODING 75
SWIDTH 620 0
DWIDTH 31 0
BBX 29 36 3 0
BITMAP
7F007FC0
7F007F80
7F00FF00
7F01FE00
7F03FC00
7F07FC00
7F07F800
7F0FF000
7F1FE000
7F3FC000
7F7FC000
7F7F8000
7FFF0000
7FFE0000
7FFE0000
7FFC0000
7FFC0000
7FFC0000
7FFE0000
7FFF0000
7FFF0000
7F7F8000
7F3FC000
7F3FE000
7F1FE000
7F0FF000
7F0FF800
7F07F800
7F03FC00
7F01FE00
7F01FE00
7F00FF00
7F007F80
7F007F80
7F003FC0
7F001FE0
ENDCHAR

STARTCHAR L
ENCODING 76
SWIDTH 440 0
DWIDTH 22 0
BBX 19 36 3 0
BITMAP
7F0000
7F0000
7F0000
7F0000
7F0000
7F0000
7F0000
7F0000
7F0000
7F0000
7F0000
7F0000
7F0000
7F0000
7F0000
7F0000
7F0000
7F0000
7F0000
7F0000
7F0000
7F0000
7F0000
7F0000
7F0000
7F0000
7F0000
7F0000
7F0000
7FFFC0
7FFFC0
7FFFC0
7FFFC0
7FFFC0
7FFFC0
7FFFC0
ENDCHAR

STARTCHAR M
ENCODING 77
SWIDTH 900 0
DWIDTH 45 0
BBX 45 36 0 0
BITMAP
00FC0001FC00
01FE0003FC00
01FE0003FC00
01FE0003FC00
01FF0007FC00
01FF0007FE00
03FF0007FE00
03FF800FFE00
03FF800FFE00
03FF800FFE00
03FFC01FFE00
03FFC01FFF00
07FFC01FFF00
07FFE03FFF00
07FFE03FFF00
07F7E03F3F00
07E7F07F3F00
07E7F07F3F80
0FE3F07E3F80
0FE3F8FE3F80
0FE3F8FE3F80
0FE1F8FC1F80
0FC1FDFC1F80
0FC1FDFC1FC0
1FC0FDF81FC0
1FC0FFF81FC0
1FC0FFF81FC0
1F807FF00FC0
1F807FF00FC0
1F807FF00FE0
3F803FE00FE0
3F803FE00FE0
3F803FE00FE0
3F001FC007E0
3F001FC007E0
3F001FC007F0
ENDCHAR

STARTCHAR N
ENCODING 78
SWIDTH 740 0
DWIDTH 37 0
BBX 31 36 3 0
BITMAP
7F0001FC
7F8001FC
7F8001FC
7FC001FC
7FE001FC
7FE001FC
7FF001FC
7FF801FC
7FF801FC
7FFC01FC
7FFE01FC
7FFE01FC
7FFF01FC
7F7F01FC
7F7F81FC
7F3FC1FC
7F1FC1FC
7F1FE1FC
7F0FF1FC
7F07F1FC
7F07F9FC
7F03FDFC
7F01FDFC
7F01FFFC
7F00FFFC
7F00FFFC
7F007FFC
7F003FFC
7F003FFC
7F001FFC
7F000FFC
7F000FFC
7F0007FC
7F0003FC
7F0003FC
7F0001FC
ENDCHAR

STARTCHAR O
ENCODING 79
SWIDTH 840 0
DWIDTH 42 0
BBX 39 38 2 -1
BITMAP
0000FE0000
0007FFC000
001FFFF000
007FFFFC00
00FFFFFE00
01FFFFFF00
03FFFFFF80
07FE00FFC0
0FF8003FE0
0FF0001FE0
1FE0000FF0
1FC00007F0
3FC00007F8
3F800003F8
3F800003F8
7F000001FC
7F000001FC
7F000001FC
7F000001FC
7F000001FC
7F000001FC
7F000001FC
7F000001FC
3F800003F8
3F800003F8
3FC00007F8
1FC00007F0
1FE0000FF0
0FF0001FE0
0FFC003FE0
07FF00FFC0
03FFFFFF80
01FFFFFF00
00FFFFFE00
007FFFFC00
001FFFF000
0007FFC000
0000FE0000
ENDCHAR

STARTCHAR P
ENCODING 80
SWIDTH 560 0
DWIDTH 28 0
BBX 24 36 3 0
BITMAP
7FFE00
7FFFC0
7FFFE0
7FFFF0
7FFFF8
7FFFFC
7FFFFC
7F03FC
7F01FE
7F00FE
7F00FE
7F00FE
7F00FE
7F01FE
7FFFFC
7FFFFC
7FFFF8
7FFFF0
7FFFE0
7FFF80
7FFC00
7F0000
7F0000
7F0000
7F0000
7F0000
7F0000
7F0000
7F0000
7F0000
7F0000
7F0000
7F0000
7F0000
7F0000
7F0000
ENDCHAR

STARTCHAR Q
ENCODING 81
SWIDTH 840 0
DWIDTH 42 0
BBX 41 40 2 -3
BITMAP
0000FE000000
0007FFC00000
001FFFF00000
007FFFFC0000
00FFFFFE0000
01FFFFFF0000
03FFFFFF8000
07FE00FFC000
0FF8003FE000
0FF0001FE000
1FE0000FF000
1FC00007F000
3FC00007F800
3F800003F800
3F800003F800
7F000001FC00
7F000001FC00
7F000001FC00
7F000001FC00
7F000001FC00
7F000001FC00
7F000001FC00
7F003FC1FC00
3F801FE3F800
3F800FF3F800
3FC00FFFF800
1FC007FFF000
1FE003FFF000
0FF001FFF000
0FFC00FFE000
07FF00FFC000
03FFFFFF8000
01FFFFFFC000
00FFFFFFE000
007FFFFFE000
001FFFFFF000
0007FFE7F800
0000FE03FC00
00000003FE00
00000001FE00
ENDCHAR

STARTCHAR R
ENCODING 82
SWIDTH 580 0
DWIDTH 29 0
BBX 26 36 3 0
BITMAP
7FFE0000
7FFFC000
7FFFE000
7FFFF000
7FFFF800
7FFFFC00
7FFFFC00
7F03FE00
7F00FE00
7F00FE00
7F00FE00
7F00FE00
7F00FE00
7F01FE00
7FFFFC00
7FFFFC00
7FFFF800
7FFFF000
7FFFE000
7FFF8000
7FFF0000
7F7F8000
7F3F8000
7F3FC000
7F1FC000
7F1FE000
7F0FE000
7F0FF000
7F07F000
7F07F800
7F03FC00
7F01FC00
7F01FE00
7F00FE00
7F00FF00
7F007F00
ENDCHAR

STARTCHAR S
ENCODING 83
SWIDTH 520 0
DWIDTH 26 0
BBX 25 38 0 -1
BITMAP
003F0000
00FFC000
03FFF000
07FFF800
07FFFC00
0FFFFE00
0FFFFE00
1FE1FC00
1FC07000
1FC06000
1FC00000
0FE00000
0FF00000
0FF80000
07FC0000
03FF0000
01FF8000
00FFC000
007FE000
003FF000
001FF800
000FFC00
0007FE00
0003FE00
0000FE00
0000FF00
00007F00
03007F00
0F007F00
3F807F00
3FE0FE00
3FFFFE00
1FFFFE00
0FFFFC00
07FFF800
03FFF000
01FFE000
003F0000
ENDCHAR

STARTCHAR T
ENCODING 84
SWIDTH 420 0
DWIDTH 21 0
BBX 23 36 -1 0
BITMAP
3FFFFC
3FFFFC
3FFFFC
3FFFFC
3FFFFC
3FFFFC
3FFFFC
00FE00
00FE00
00FE00
00FE00
00FE00
00FE00
00FE00
00FE00
00FE00
00FE00
00FE00
00FE00
00FE00
00FE00
00FE00
00FE00
00FE00
00FE00
00FE00
00FE00
00FE00
00FE00
00FE00
00FE00
00FE00
00FE00
00FE00
00FE00
00FE00
ENDCHAR

STARTCHAR U
ENCODING 85
SWIDTH 640 0
DWIDTH 32 0
BBX 26 37 3 -1
BITMAP
7F003F80
7F003F80
7F003F80
7F003F80
7F003F80
7F003F80
7F003F80
7F003F80
7F003F80
7F003F80
7F003F80
7F003F80
7F003F80
7F003F80
7F003F80
7F003F80
7F003F80
7F003F80
7F003F80
7F003F80
7F003F80
7F003F80
7F003F80
7F003F80
7F003F80
7F003F80
7F003F80
7F003F80
3F807F00
3FC0FF00
3FFFFF00
1FFFFE00
0FFFFC00
07FFF800
03FFF000
01FFE000
003F0000
ENDCHAR

STARTCHAR V
ENCODING 86
SWIDTH 700 0
DWIDTH 35 0
BBX 35 36 0 0
BITMAP
3F80003F80
3F80003F80
3F80003F80
1FC0007F00
1FC0007F00
1FC0007F00
0FE000FE00
0FE000FE00
0FE000FE00
07F001FC00
07F001FC00
07F001F800
03F803F800
03F803F800
01FC07F000
01FC07F000
01FC07F000
00FE0FE000
00FE0FE000
00FE0FE000
007F1FC000
007F1FC000
007F1FC000
003FBF8000
003FBF8000
003FFF0000
001FFF0000
001FFF0000
001FFE0000
000FFE0000
000FFE0000
0007FC0000
0007FC0000
0007FC0000
0003F80000
0003F80000
ENDCHAR

STARTCHAR W
ENCODING 87
SWIDTH 900 0
DWIDTH 45 0
BBX 45 36 0 0
BITMAP
3F000FC007F0
3F801FC007E0
3F801FC00FE0
3F801FC00FE0
3F803FE00FE0
1F803FE00FE0
1FC03FE00FC0
1FC03FF01FC0
1FC07FF01FC0
0FC07FF01FC0
0FE07FF01F80
0FE07FF83F80
0FE0FFF83F80
0FE0FDF83F80
07E0FDFC3F00
07F1FDFC3F00
07F1F8FC7F00
07F1F8FC7F00
03F1F8FE7F00
03FBF8FE7E00
03FBF07EFE00
03FBF07FFE00
03FFF07FFE00
01FFE03FFC00
01FFE03FFC00
01FFE03FFC00
01FFE03FFC00
00FFC01FFC00
00FFC01FF800
00FFC01FF800
00FFC00FF800
007F800FF800
007F800FF000
007F800FF000
007F0007F000
007F0007F000
ENDCHAR

STARTCHAR X
ENCODING 88
SWIDTH 680 0
DWIDTH 34 0
BBX 34 36 0 0
BITMAP
3FC000FF00
1FC000FE00
1FE001FE00
0FF003FC00
07F003F800
07F807F800
03FC0FF000
01FC0FE000
01FE1FE000
00FF3FC000
007F3F8000
007FFF8000
003FFF0000
001FFE0000
001FFE0000
000FFC0000
0007F80000
0007F80000
000FFC0000
000FFC0000
001FFE0000
003FFF0000
003FFF0000
007FFF8000
007F3FC000
00FF3FC000
01FE1FE000
01FC0FE000
03FC0FF000
07F807F800
07F003F800
0FF003FC00
1FE001FE00
1FC000FE00
3FC000FF00
7F80007F80
ENDCHAR

STARTCHAR Y
ENCODING 89
SWIDTH 620 0
DWIDTH 31 0
BBX 31 36 0 0
BITMAP
3F8003F8
3FC007F8
1FC007F0
1FE00FF0
0FE00FE0
0FF01FE0
07F01FC0
07F83FC0
03F83F80
03FC7F80
01FC7F00
01FEFF00
00FEFE00
00FFFE00
007FFC00
003FF800
003FF800
001FF000
001FF000
000FE000
000FE000
000FE000
000FE000
000FE000
000FE000
000FE000
000FE000
000FE000
000FE000
000FE000
000FE000
000FE000
000FE000
000FE000
000FE000
000FE000
ENDCHAR

STARTCHAR Z
ENCODING 90
SWIDTH 500 0
DWIDTH 25 0
BBX 25 36 0 0
BITMAP
3FFFFF00
3FFFFE00
3FFFFE00
3FFFFC00
3FFFFC00
3FFFFC00
3FFFF800
0003F800
0007F000
0007F000
000FE000
000FE000
001FC000
001FC000
001FC000
003F8000
003F8000
007F0000
007F0000
00FE0000
00FE0000
01FE0000
01FC0000
01FC0000
03F80000
03F80000
07F00000
07F00000
0FE00000
0FFFFE00
1FFFFE00
1FFFFE00
1FFFFE00
3FFFFE00
3FFFFE00
7FFFFE00
ENDCHAR

STARTCHAR bracketleft
ENCODING 91
SWIDTH 320 0
DWIDTH 16 0
BBX 13 47 3 -10
BITMAP
7FF0
7FF0
7FF0
7FF0
7FF0
7FF0
7F00
7F00
7F00
7F00
7F00
7F00
7F00
7F00
7F00
7F00
7F00
7F00
7F00
7F00
7F00
7F00
7F00
7F00
7F00
7F00
7F00
7F00
7F00
7F00
7F00
7F00
7F00
7F00
7F00
7F00
7F00
7F00
7F00
7F00
7F00
7FF0
7FF0
7FF0
7FF0
7FF0
7FF0
ENDCHAR

STARTCHAR backslash
ENCODING 92
SWIDTH 640 0
DWIDTH 32 0
BBX 24 43 4 -6
BITMAP
3C0000
3E0000
1E0000
1F0000
1F0000
0F0000
0F8000
0F8000
078000
07C000
03C000
03E000
03E000
01E000
01F000
01F000
00F000
00F800
007800
007C00
007C00
003C00
003E00
003E00
001E00
001F00
000F00
000F80
000F80
000780
0007C0
0007C0
0003C0
0003E0
0001E0
0001F0
0001F0
0000F0
0000F8
0000F8
000078
00007C
00003C
ENDCHAR

STARTCHAR bracketright
ENCODING 93
SWIDTH 320 0
DWIDTH 16 0
BBX 13 47 0 -10
BITMAP
7FF0
7FF0
7FF0
7FF0
7FF0
7FF0
07F0
07F0
07F0
07F0
07F0
07F0
07F0
07F0
07F0
07F0
07F0
07F0
07F0
07F0
07F0
07F0
07F0
07F0
07F0
07F0
07F0
07F0
07F0
07F0
07F0
07F0
07F0
07F0
07F0
07F0
07F0
07F0
07F0
07F0
07F0
7FF0
7FF0
7FF0
7FF0
7FF0
7FF0
ENDCHAR

STARTCHAR asciicircum
ENCODING 94
SWIDTH 600 0
DWIDTH 30 0
BBX 28 27 1 9
BITMAP
001F8000
001F8000
003FC000
003FC000
003FC000
007FE000
007FE000
007FF000
00FFF000
00FFF000
01F9F800
01F9F800
01F9F800
03F0FC00
03F0FC00
03F0FC00
07E07E00
07E07E00
07E07E00
0FC03F00
0FC03F00
0FC03F00
1F801F80
1F801F80
1F000F80
3F000FC0
3F000FC0
ENDCHAR

STARTCHAR underscore
ENCODING 95
SWIDTH 500 0
DWIDTH 25 0
BBX 29 3 -2 -6
BITMAP
3FFFFFE0
3FFFFFE0
3FFFFFE0
ENDCHAR

STARTCHAR quoteleft
ENCODING 96
SWIDTH 280 0
DWIDTH 14 0
BBX 10 14 2 23
BITMAP
0400
0E00
0E00
1E00
1C00
1C00
3C00
3F00
3F00
3F00
3F00
3F00
3F00
3F00
ENDCHAR

STARTCHAR a
ENCODING 97
SWIDTH 660 0
DWIDTH 33 0
BBX 31 29 1 -1
BITMAP
003FC000
00FFF3F8
03FFFBF8
07FFFFF8
0FFFFFF8
0FFFFFF8
1FF83FF8
1FE00FF8
3FC007F8
3F8007F8
3F8003F8
7F0003F8
7F0001F8
7F0001F8
7F0001F8
7F0001F8
7F0001F8
7F0003F8
3F8003F8
3F8007F8
3FC007F8
1FE00FF8
1FF87FF8
0FFFFFF8
07FFFFF8
03FFFFF8
01FFFBF8
00FFF3F8
001FC000
ENDCHAR

STARTCHAR b
ENCODING 98
SWIDTH 660 0
DWIDTH 33 0
BBX 30 38 2 -1
BITMAP
7F000000
7F000000
7F000000
7F000000
7F000000
7F000000
7F000000
7F000000
7F000000
7F07E000
7F1FFC00
7F7FFE00
7FFFFF80
7FFFFFC0
7FFFFFC0
7FF87FE0
7FE01FE0
7FC00FF0
7F8007F0
7F0007F8
7F0003F8
7F0003F8
7F0003F8
7F0003F8
7F0003F8
7F0003F8
7F0003F8
7F0007F0
7F8007F0
7FC00FF0
7FE01FE0
7FF87FE0
7FFFFFC0
7FFFFF80
7FFFFF80
7F7FFE00
7F3FFC00
0007F000
ENDCHAR

STARTCHAR c
ENCODING 99
SWIDTH 640 0
DWIDTH 32 0
BBX 30 29 1 -1
BITMAP
000FF800
007FFE00
01FFFF80
03FFFFC0
07FFFFE0
0FFFFFF0
0FFC1FF0
1FE007C0
3FC00300
3F800000
3F800000
3F000000
7F000000
7F000000
7F000000
7F000000
7F000000
7F000000
3F800000
3F800000
3FC00300
1FE007C0
1FFC1FE0
0FFFFFF0
07FFFFE0
03FFFFC0
01FFFF80
007FFE00
000FF000
ENDCHAR

STARTCHAR d
ENCODING 100
SWIDTH 660 0
DWIDTH 33 0
BBX 30 38 1 -1
BITMAP
000003F8
000003F8
000003F8
000003F8
000003F8
000003F8
000003F8
000003F8
000003F8
001F83F8
00FFE3F8
01FFFBF8
07FFFFF8
07FFFFF8
0FFFFFF8
1FF87FF8
1FE01FF8
3FC00FF8
3F8007F8
3F8003F8
7F0003F8
7F0003F8
7F0003F8
7F0003F8
7F0003F8
7F0003F8
7F0003F8
3F8003F8
3F8007F8
3FC00FF8
1FE01FF8
1FF87FF8
0FFFFFF8
07FFFFF8
03FFFFF8
01FFFBF8
00FFF3F8
003FC000
ENDCHAR

STARTCHAR e
ENCODING 101
SWIDTH 640 0
DWIDTH 32 0
BBX 31 29 0 -1
BITMAP
0007E000
003FFC00
00FFFF00
03FFFF80
07FFFFC0
07FFFFE0
0FF01FF0
1FE007F0
1FC003F8
1F8001F8
3F8001F8
3FFFFFFC
3FFFFFFC
3FFFFFFC
3FFFFFFC
3FFFFFFC
3F000000
3F800000
3F800000
1F800000
1FC00200
1FE00780
0FF83FE0
07FFFFF0
07FFFFE0
03FFFFC0
00FFFF80
007FFE00
000FF000
ENDCHAR

STARTCHAR f
ENCODING 102
SWIDTH 280 0
DWIDTH 14 0
BBX 17 38 -1 0
BITMAP
00F800
03FE00
07FE00
07FE00
07FE00
0FFE00
0FE000
0FE000
0FE000
0FE000
0FE000
3FFE00
3FFE00
3FFE00
3FFE00
3FFE00
3FFE00
0FE000
0FE000
0FE000
0FE000
0FE000
0FE000
0FE000
0FE000
0FE000
0FE000
0FE000
0FE000
0FE000
0FE000
0FE000
0FE000
0FE000
0FE000
0FE000
0FE000
0FE000
ENDCHAR

STARTCHAR g
ENCODING 103
SWIDTH 660 0
DWIDTH 33 0
BBX 31 39 1 -11
BITMAP
003FC000
00FFF3F8
03FFFBF8
07FFFFF8
0FFFFFF8
0FFFFFF8
1FF83FF8
3FE00FF8
3FC007F8
3F8003F8
3F8003F8
7F0003F8
7F0001F8
7F0001F8
7F0001F8
7F0001F8
7F0003F8
3F8003F8
3F8003F8
3FC007F8
1FE00FF8
1FF83FF8
0FFFFFF8
0FFFFFF8
07FFFFF8
03FFFFF8
00FFF3F8
003FC3F8
000003F8
000003F8
7F8007F0
3FC00FF0
3FF07FF0
1FFFFFE0
0FFFFFE0
0FFFFFC0
03FFFF80
01FFFE00
003FF000
ENDCHAR

STARTCHAR h
ENCODING 104
SWIDTH 600 0
DWIDTH 30 0
BBX 26 37 2 0
BITMAP
7F000000
7F000000
7F000000
7F000000
7F000000
7F000000
7F000000
7F000000
7F000000
7F07E000
7F1FF800
7F7FFC00
7FFFFE00
7FFFFF00
7FFFFF00
7FF0FF00
7FC07F80
7F807F80
7F803F80
7F003F80
7F003F80
7F003F80
7F003F80
7F003F80
7F003F80
7F003F80
7F003F80
7F003F80
7F003F80
7F003F80
7F003F80
7F003F80
7F003F80
7F003F80
7F003F80
7F003F80
7F003F80
ENDCHAR

STARTCHAR i
ENCODING 105
SWIDTH 240 0
DWIDTH 12 0
BBX 11 38 1 0
BITMAP
0E00
3F80
3F80
7FC0
7FC0
7FC0
3F80
1F80
0E00
0000
0000
3F80
3F80
3F80
3F80
3F80
3F80
3F80
3F80
3F80
3F80
3F80
3F80
3F80
3F80
3F80
3F80
3F80
3F80
3F80
3F80
3F80
3F80
3F80
3F80
3F80
3F80
3F80
ENDCHAR

STARTCHAR j
ENCODING 106
SWIDTH 260 0
DWIDTH 13 0
BBX 16 49 -4 -11
BITMAP
0070
01FC
01FC
03FE
03FE
03FE
01FC
00FC
0070
0000
0000
01FC
01FC
01FC
01FC
01FC
01FC
01FC
01FC
01FC
01FC
01FC
01FC
01FC
01FC
01FC
01FC
01FC
01FC
01FC
01FC
01FC
01FC
01FC
01FC
01FC
01FC
01FC
01FC
01FC
01FC
01FC
03FC
3FF8
3FF8
3FF8
3FF0
3FE0
0780
ENDCHAR

STARTCHAR k
ENCODING 107
SWIDTH 580 0
DWIDTH 29 0
BBX 29 37 2 0
BITMAP
7F000000
7F000000
7F000000
7F000000
7F000000
7F000000
7F000000
7F000000
7F000000
7F000000
7F007FC0
7F00FF80
7F00FF00
7F01FE00
7F03FC00
7F07F800
7F0FF000
7F1FE000
7F3FE000
7F7FC000
7FFF8000
7FFF0000
7FFE0000
7FFE0000
7FFF0000
7F7F8000
7F3FC000
7F3FE000
7F1FF000
7F0FF800
7F07F800
7F03FC00
7F01FE00
7F00FF00
7F007F80
7F003FC0
7F001FE0
ENDCHAR

STARTCHAR l
ENCODING 108
SWIDTH 240 0
DWIDTH 12 0
BBX 9 37 2 0
BITMAP
7F00
7F00
7F00
7F00
7F00
7F00
7F00
7F00
7F00
7F00
7F00
7F00
7F00
7F00
7F00
7F00
7F00
7F00
7F00
7F00
7F00
7F00
7F00
7F00
7F00
7F00
7F00
7F00
7F00
7F00
7F00
7F00
7F00
7F00
7F00
7F00
7F00
ENDCHAR

STARTCHAR m
ENCODING 109
SWIDTH 940 0
DWIDTH 47 0
BBX 43 28 2 0
BITMAP
0007E007F000
7F1FF81FFC00
7F7FFC3FFE00
7FFFFE7FFF00
7FFFFFFFFF80
7FFFFFFFFF80
7FF1FFF8FF80
7FC07FE03FC0
7F807FC03FC0
7F803FC01FC0
7F003F801FC0
7F003F801FC0
7F003F801FC0
7F003F801FC0
7F003F801FC0
7F003F801FC0
7F003F801FC0
7F003F801FC0
7F003F801FC0
7F003F801FC0
7F003F801FC0
7F003F801FC0
7F003F801FC0
7F003F801FC0
7F003F801FC0
7F003F801FC0
7F003F801FC0
7F003F801FC0
ENDCHAR

STARTCHAR n
ENCODING 110
SWIDTH 600 0
DWIDTH 30 0
BBX 26 28 2 0
BITMAP
000FE000
7F3FF800
7F7FFC00
7FFFFE00
7FFFFF00
7FFFFF00
7FF0FF80
7FC07F80
7F807F80
7F803F80
7F003F80
7F003F80
7F003F80
7F003F80
7F003F80
7F003F80
7F003F80
7F003F80
7F003F80
7F003F80
7F003F80
7F003F80
7F003F80
7F003F80
7F003F80
7F003F80
7F003F80
7F003F80
ENDCHAR

STARTCHAR o
ENCODING 111
SWIDTH 640 0
DWIDTH 32 0
BBX 30 29 1 -1
BITMAP
001FE000
007FF800
01FFFE00
03FFFF00
07FFFF80
0FFFFFC0
1FF87FE0
1FE01FE0
3FC00FF0
3F8007F0
3F8007F0
3F0003F8
7F0003F8
7F0003F8
7F0003F8
7F0003F8
7F0003F8
7F0003F8
3F8007F0
3F8007F0
3FC00FF0
1FE01FE0
1FFCFFE0
0FFFFFC0
07FFFF80
03FFFF00
01FFFE00
007FF800
001FE000
ENDCHAR

STARTCHAR p
ENCODING 112
SWIDTH 660 0
DWIDTH 33 0
BBX 30 38 2 -10
BITMAP
0007F000
7F3FFC00
7F7FFF00
7FFFFF80
7FFFFFC0
7FFFFFC0
7FF87FE0
7FE01FF0
7FC00FF0
7F8007F0
7F0007F8
7F0003F8
7F0003F8
7F0003F8
7F0003F8
7F0003F8
7F0003F8
7F0003F8
7F0007F0
7F8007F0
7FC00FF0
7FE01FE0
7FF87FE0
7FFFFFC0
7FFFFF80
7FFFFF80
7F7FFE00
7F1FFC00
7F07F000
7F000000
7F000000
7F000000
7F000000
7F000000
7F000000
7F000000
7F000000
7F000000
ENDCHAR

STARTCHAR q
ENCODING 113
SWIDTH 660 0
DWIDTH 33 0
BBX 30 38 1 -10
BITMAP
003FC000
00FFF3F8
03FFFBF8
07FFFFF8
0FFFFFF8
0FFFFFF8
1FF87FF8
1FE01FF8
3FC00FF8
3F8007F8
3F8003F8
7F0003F8
7F0003F8
7F0003F8
7F0003F8
7F0003F8
7F0003F8
7F0003F8
3F8003F8
3F8007F8
3FC00FF8
1FE01FF8
1FF87FF8
0FFFFFF8
07FFFFF8
03FFFFF8
01FFFBF8
00FFF3F8
003FC3F8
000003F8
000003F8
000003F8
000003F8
000003F8
000003F8
000003F8
000003F8
000003F8
ENDCHAR

STARTCHAR r
ENCODING 114
SWIDTH 320 0
DWIDTH 16 0
BBX 17 28 1 0
BITMAP
003E00
7E7E00
7EFE00
7FFC00
7FFC00
7FFC00
7FC000
7F8000
7F8000
7F0000
7F0000
7F0000
7F0000
7F0000
7F0000
7F0000
7F0000
7F0000
7F0000
7F0000
7F0000
7F0000
7F0000
7F0000
7F0000
7F0000
7F0000
7F0000
ENDCHAR

STARTCHAR s
ENCODING 115
SWIDTH 440 0
DWIDTH 22 0
BBX 23 29 -1 -1
BITMAP
00FE00
03FF80
07FFE0
0FFFF0
0FFFF8
1FFFF0
1FC7E0
1F81C0
1FC080
1FC000
1FF000
0FFC00
0FFF00
07FFC0
03FFE0
00FFF0
003FF0
000FF8
0007F8
0003F8
0601F8
0F01F8
0FC7F8
1FFFF8
3FFFF0
1FFFF0
0FFFE0
07FF80
00FE00
ENDCHAR

STARTCHAR t
ENCODING 116
SWIDTH 300 0
DWIDTH 15 0
BBX 17 37 -1 0
BITMAP
07F000
07F000
07F000
07F000
07F000
07F000
07F000
07F000
07F000
07F000
3FFF00
3FFF00
3FFF00
3FFF00
3FFF00
3FFF00
07F000
07F000
07F000
07F000
07F000
07F000
07F000
07F000
07F000
07F000
07F000
07F000
07F000
07F000
07F000
07F000
07F000
07F000
07F000
07F000
07F000
ENDCHAR

STARTCHAR u
ENCODING 117
SWIDTH 600 0
DWIDTH 30 0
BBX 26 28 2 -1
BITMAP
7F003F80
7F003F80
7F003F80
7F003F80
7F003F80
7F003F80
7F003F80
7F003F80
7F003F80
7F003F80
7F003F80
7F003F80
7F003F80
7F003F80
7F003F80
7F003F80
7F003F80
7F003F80
7F803F80
3F807F00
3FC07F00
3FE1FF00
1FFFFE00
1FFFFE00
0FFFFC00
07FFF800
01FFE000
007F8000
ENDCHAR

STARTCHAR v
ENCODING 118
SWIDTH 560 0
DWIDTH 28 0
BBX 30 27 -1 0
BITMAP
3F8003F0
3F8007F0
1F8007E0
1FC00FE0
1FC00FE0
0FE01FC0
0FE01FC0
07F01F80
07F03F80
03F03F00
03F87F00
03F87F00
01FCFE00
01FCFE00
00FCFC00
00FFFC00
00FFFC00
007FF800
007FF800
003FF000
003FF000
001FE000
001FE000
001FE000
000FC000
000FC000
00078000
ENDCHAR

STARTCHAR w
ENCODING 119
SWIDTH 800 0
DWIDTH 40 0
BBX 42 27 -1 0
BITMAP
3F001E003F00
3F803F003F00
3F803F007F00
1F803F007E00
1FC07F80FE00
1FC07F80FE00
0FC07F80FC00
0FE0FFC1FC00
0FE0FFC1FC00
07E1FFE1F800
07F1FFE3F800
07F1FFE3F000
03F3FFF3F000
03FBF3F7F000
01FBF3F7E000
01FFF3FFE000
01FFE1FFE000
00FFE1FFC000
00FFC0FFC000
00FFC0FFC000
007FC0FF8000
007F807F8000
007F807F8000
003F007F0000
003F003F0000
003F003E0000
001E003E0000
ENDCHAR

STARTCHAR x
ENCODING 120
SWIDTH 560 0
DWIDTH 28 0
BBX 31 27 -1 0
BITMAP
3FC00FF0
1FE01FE0
0FF03FC0
07F03F80
07F87F80
03FCFF00
01FCFE00
01FFFE00
00FFFC00
007FF800
003FF000
003FF000
001FE000
001FE000
003FF000
007FF800
007FFC00
00FFFC00
01FFFE00
03FCFF00
03F87F00
07F87F80
0FF03FC0
0FE01FE0
1FC00FE0
3FC00FF0
7F8007F8
ENDCHAR

STARTCHAR y
ENCODING 121
SWIDTH 580 0
DWIDTH 29 0
BBX 31 37 -1 -10
BITMAP
3F0001F8
3F8003F8
3F8003F8
1FC007F0
1FC007F0
0FE00FE0
0FE00FE0
0FE01FC0
07F01FC0
07F01F80
03F83F80
03F83F00
01F87F00
01FC7F00
01FCFE00
00FEFE00
00FFFC00
007FFC00
007FF800
007FF800
003FF000
003FF000
001FE000
001FE000
001FE000
001FC000
001FC000
003F8000
003F8000
003F0000
007F0000
007E0000
00FE0000
00FE0000
01FC0000
01FC0000
03F80000
ENDCHAR

STARTCHAR z
ENCODING 122
SWIDTH 460 0
DWIDTH 23 0
BBX 25 27 -1 0
BITMAP
1FFFFE00
1FFFFE00
1FFFFC00
1FFFFC00
1FFFF800
1FFFF800
0007F000
000FE000
000FE000
001FC000
001FC000
003F8000
003F8000
007F0000
00FE0000
00FE0000
01FC0000
01FC0000
03F80000
03F80000
07F00000
0FFFFE00
0FFFFE00
1FFFFE00
1FFFFE00
3FFFFE00
3FFFFE00
ENDCHAR

STARTCHAR braceleft
ENCODING 123
SWIDTH 340 0
DWIDTH 17 0
BBX 20 47 -1 -11
BITMAP
000FC0
003FC0
007FC0
00FFC0
01FFC0
01FFC0
01FC00
01F800
01F800
01F800
01F800
01F800
01F800
01F800
01F800
01F800
03F800
03F800
03F000
07F000
3FF000
7FE000
7FC000
7F8000
7FC000
7FE000
3FF000
07F000
03F000
03F800
03F800
01F800
01F800
01F800
01F800
01F800
01F800
01F800
01F800
01F800
01FC00
01FFC0
01FFC0
00FFC0
007FC0
003FC0
000FC0
ENDCHAR

STARTCHAR bar
ENCODING 124
SWIDTH 600 0
DWIDTH 30 0
BBX 6 47 12 -10
BITMAP
78
78
78
78
78
78
78
78
78
78
78
78
78
78
78
78
78
78
78
78
78
78
78
78
78
78
78
78
78
78
78
78
78
78
78
78
78
78
78
78
78
78
78
78
78
78
78
ENDCHAR

STARTCHAR braceright
ENCODING 125
SWIDTH 340 0
DWIDTH 17 0
BBX 19 47 -1 -11
BITMAP
7E0000
7F8000
7FE000
7FE000
7FF000
7FF000
07F000
03F000
03F000
03F000
03F000
03F000
03F000
03F000
03F000
03F800
03F800
01F800
01F800
01FC00
00FF80
00FFC0
007FC0
001FC0
007FC0
00FFC0
01FF80
01FC00
01F800
01F800
03F800
03F800
03F000
03F000
03F000
03F000
03F000
03F000
03F000
03F000
07F000
7FF000
7FF000
7FE000
7FE000
7F8000
7E0000
ENDCHAR

STARTCHAR asciitilde
ENCODING 126
SWIDTH 600 0
DWIDTH 30 0
BBX 28 11 1 12
BITMAP
07E00000
3FFC0020
7FFF0060
7FFFC1E0
7FFFFFE0
7FFFFFE0
7FFFFFE0
783FFFE0
600FFFE0
4003FFC0
00007E00
ENDCHAR

STARTCHAR space
ENCODING 160
SWIDTH 280 0
DWIDTH 18 0
BBX 0 0 0 0
BITMAP
ENDCHAR

STARTCHAR exclamdown
ENCODING 161
SWIDTH 280 0
DWIDTH 14 0
BBX 12 37 1 -10
BITMAP
0F00
1F80
3FC0
3FC0
3FC0
3FC0
1F80
0F00
0000
0000
0000
1FC0
1FC0
1FC0
1FC0
1FC0
1FC0
1FC0
1FC0
1FC0
1FC0
1FC0
1FC0
1FC0
1FC0
1FC0
1FC0
1FC0
1FC0
1FC0
1FC0
1FC0
1FC0
1FC0
1FC0
1FC0
1FC0
ENDCHAR

STARTCHAR cent
ENCODING 162
SWIDTH 560 0
DWIDTH 28 0
BBX 26 39 1 -6
BITMAP
00001800
00001E00
00003E00
00003C00
00007C00
001FF800
00FFF800
01FFFC00
07FFFE00
07FFFF00
0FFFFF80
1FF3FF00
1FE3FC00
3FC7D000
3F878000
3F8F8000
7F0F0000
7F0F0000
7F1F0000
7F1E0000
7F3E0000
7F3C0000
7F3C0000
3FFC0000
3FF80000
3FF80000
1FF01800
1FF07C00
0FFFFE00
07FFFF00
07FFFE00
03FFFC00
07FFF000
07BFC000
0F800000
0F000000
1F000000
1E000000
06000000
ENDCHAR

STARTCHAR sterling
ENCODING 163
SWIDTH 560 0
DWIDTH 28 0
BBX 29 38 0 -1
BITMAP
003FC000
00FFF800
01FFFC00
03FFFE00
03FFFE00
07FFFF00
07F8FF00
0FF07F80
0FE03F80
0FE03F80
0FE00000
0FE00000
0FF00000
07F00000
07F00000
7FFFF800
7FFFF800
7FFFF800
7FFFF800
7FFFF800
7FFFF800
00FE0000
00FE0000
00FE0000
00FE0000
00FE0000
00FE0000
01FC0000
01FC0000
01FC07E0
03FC0FE0
0FFF9FE0
3FFFFFE0
3FFFFFC0
1FFFFF80
1FFFFF80
1FFFFE00
0E0FFC00
ENDCHAR

STARTCHAR currency
ENCODING 164
SWIDTH 600 0
DWIDTH 30 0
BBX 29 25 1 5
BITMAP
080F8080
1C7FF1C0
3FFFFFE0
3FFFFFE0
1FFFFF80
0FE03F80
0FC01F80
1F800FC0
1F0007C0
3F0007E0
3E0003E0
3E0003E0
3E0003E0
3E0003E0
3E0003E0
3F0003E0
1F0007C0
1F800FC0
0FC01F80
0FE03F80
1FFFFFC0
3FFFFFE0
3FFFFFE0
1C7FF1C0
080F8080
ENDCHAR

STARTCHAR yen
ENCODING 165
SWIDTH 560 0
DWIDTH 28 0
BBX 29 36 -1 0
BITMAP
3F800FE0
3F800FE0
1FC01FC0
1FC01FC0
0FE03F80
0FE03F80
07F07F00
07F07F00
07F8FF00
03F8FE00
03FCFE00
01FDFC00
01FDFC00
00FFF800
00FFF800
007FF000
007FF000
1FFFFFC0
1FFFFFC0
1FFFFFC0
1FFFFFC0
001FC000
001FC000
001FC000
1FFFFFC0
1FFFFFC0
1FFFFFC0
1FFFFFC0
001FC000
001FC000
001FC000
001FC000
001FC000
001FC000
001FC000
001FC000
ENDCHAR

STARTCHAR brokenbar
ENCODING 166
SWIDTH 600 0
DWIDTH 30 0
BBX 6 47 12 -10
BITMAP
78
78
78
78
78
78
78
78
78
78
78
78
78
78
78
78
00
00
00
00
00
00
00
00
00
00
00
00
00
00
00
78
78
78
78
78
78
78
78
78
78
78
78
78
78
78
78
ENDCHAR

STARTCHAR section
ENCODING 167
SWIDTH 560 0
DWIDTH 28 0
BBX 26 48 1 -11
BITMAP
007F0000
01FFC000
03FFF000
07FFF800
0FFFF800
0FFFFC00
1FE1FC00
1FC0FE00
1FC0FE00
1FC00000
1FE00000
1FF80000
0FFC0000
0FFE0000
07FF8000
07FFC000
0FFFF000
1FFFF800
3F9FFC00
3F0FFE00
7E07FE00
7E01FF00
7E00FF00
7F007F00
7F003F00
7FC03F00
3FE03F00
3FF07E00
1FFCFE00
0FFFFC00
07FFF800
01FFF000
00FFE000
007FF000
001FF800
000FFC00
0003FC00
0001FE00
0000FE00
1F80FE00
1FC0FE00
1FE1FE00
0FFFFC00
0FFFFC00
07FFF800
03FFF000
01FFE000
007F8000
ENDCHAR

STARTCHAR dieresis
ENCODING 168
SWIDTH 500 0
DWIDTH 25 0
BBX 21 7 2 31
BITMAP
1C0380
3F07C0
7F0FE0
7F0FE0
7F0FE0
3E07C0
1C0380
ENDCHAR

STARTCHAR copyright
ENCODING 169
SWIDTH 740 0
DWIDTH 37 0
BBX 39 37 -1 0
BITMAP
0000FE0000
0007FFC000
001FFFF000
007FFFFC00
00FE00FE00
01F8003F00
03E0000F80
07C00007C0
0F80FF03E0
0F03FFC1F0
1E07FFE0F0
1E0FC3F0F0
3C0F00F078
3C1F00F878
3C1E007838
783C00003C
783C00003C
783C00003C
783C00003C
783C00003C
783C00003C
783E00003C
3C1E007838
3C1F00F878
3C0F80F078
3E0FC3F0F8
1E07FFE0F0
0F01FFC1F0
0F807F03E0
07C00007C0
03E0000FC0
01F8003F80
00FF01FF00
007FFFFC00
001FFFF800
000FFFE000
0000FE0000
ENDCHAR

STARTCHAR ordfeminine
ENCODING 170
SWIDTH 360 0
DWIDTH 18 0
BBX 17 17 0 20
BITMAP
07DF00
0FFF00
1FFF00
3FFF00
3E3F00
7E1F00
7C1F00
7C1F00
7C1F00
7C1F00
7C1F00
7E3F00
3F3F00
3FFF00
1FFF00
0FFF00
07DF00
ENDCHAR

STARTCHAR guillemotleft
ENCODING 171
SWIDTH 460 0
DWIDTH 23 0
BBX 25 27 -1 0
BITMAP
03F07E00
03F07E00
07E0FE00
07E0FC00
07E0FC00
0FE1FC00
0FC1F800
0FC1F800
1FC3F800
1F83F000
1F83F000
3F87F000
3F07E000
3F07E000
3F07E000
3F87F000
1F83F000
1F83F000
1FC3F800
0FC1F800
0FC1F800
0FE1FC00
07E0FC00
07E0FC00
07F0FE00
03F07E00
03F07E00
ENDCHAR

STARTCHAR logicalnot
ENCODING 172
SWIDTH 600 0
DWIDTH 30 0
BBX 28 16 1 10
BITMAP
3FFFFFC0
3FFFFFC0
3FFFFFC0
3FFFFFC0
3FFFFFC0
3FFFFFC0
00000FC0
00000FC0
00000FC0
00000FC0
00000FC0
00000FC0
00000FC0
00000FC0
00000FC0
00000FC0
ENDCHAR

STARTCHAR hyphen
ENCODING 173
SWIDTH 420 0
DWIDTH 21 0
BBX 15 6 3 10
BITMAP
7FFC
7FFC
7FFC
7FFC
7FFC
7FFC
ENDCHAR

STARTCHAR registered
ENCODING 174
SWIDTH 740 0
DWIDTH 37 0
BBX 38 36 -1 1
BITMAP
0000FC0000
000FFFC000
003FFFF000
007FFFFC00
01FE00FE00
03F0003F00
07E0000F80
07C00007C0
0F8FFF03C0
1F0FFF81E0
1E0FFFC1E0
3C0FFFE0F0
3C0F03E0F0
3C0F01E070
780F01E078
780F01E078
780FFFC078
780FFF8078
780FFFC078
780FFFC078
780F03E078
3C0F03E070
3C0F01E0F0
3C0F01E0F0
3E0F01E1F0
1E0F01E1E0
1F0F01E3E0
0F8F01F7C0
07C0000F80
07E0001F80
03F8007F00
01FE01FE00
007FFFF800
003FFFF000
000FFFC000
0001FE0000
ENDCHAR

STARTCHAR macron
ENCODING 175
SWIDTH 420 0
DWIDTH 21 0
BBX 17 5 2 32
BITMAP
3FFE00
3FFE00
3FFE00
3FFE00
3FFE00
ENDCHAR

STARTCHAR degree
ENCODING 176
SWIDTH 400 0
DWIDTH 20 0
BBX 19 17 1 20
BITMAP
01F000
07FC00
0FFE00
1E0F00
3C0380
380380
7001C0
7001C0
7001C0
7001C0
7001C0
380380
3C0780
1E0F00
0FFE00
07FC00
01F000
ENDCHAR

STARTCHAR plusminus
ENCODING 177
SWIDTH 600 0
DWIDTH 30 0
BBX 28 35 1 0
BITMAP
001F8000
001F8000
001F8000
001F8000
001F8000
001F8000
001F8000
001F8000
001F8000
3FFFFFC0
3FFFFFC0
3FFFFFC0
3FFFFFC0
3FFFFFC0
3FFFFFC0
001F8000
001F8000
001F8000
001F8000
001F8000
001F8000
001F8000
001F8000
001F8000
00000000
00000000
00000000
00000000
00000000
3FFFFFC0
3FFFFFC0
3FFFFFC0
3FFFFFC0
3FFFFFC0
3FFFFFC0
ENDCHAR

STARTCHAR twosuperior
ENCODING 178
SWIDTH 336 0
DWIDTH 17 0
BBX 18 19 -1 18
BITMAP
01F800
07FE00
0FFF00
1FFF00
1F0F80
1E0F80
3E0F80
000F80
001F00
003F00
007E00
00FC00
01F800
03F000
0FE000
1FFF80
3FFF80
3FFF80
3FFF80
ENDCHAR

STARTCHAR threesuperior
ENCODING 179
SWIDTH 336 0
DWIDTH 17 0
BBX 18 20 -1 17
BITMAP
03F000
0FF800
1FFC00
1FFE00
3E3E00
3E1E00
001E00
007E00
01F800
01FC00
01FE00
003F00
000F80
3C0F80
3C0F80
3E1F00
3FFF00
1FFE00
0FFC00
03F000
ENDCHAR

STARTCHAR acute
ENCODING 180
SWIDTH 420 0
DWIDTH 21 0
BBX 17 10 4 31
BITMAP
01FE00
01FC00
03F800
03F000
07E000
0FC000
0FC000
1F8000
1F0000
3E0000
ENDCHAR

STARTCHAR mu
ENCODING 181
SWIDTH 576 0
DWIDTH 29 0
BBX 27 37 1 -10
BITMAP
7F001FC0
7F001FC0
7F001FC0
7F001FC0
7F001FC0
7F001FC0
7F001FC0
7F001FC0
7F001FC0
7F001FC0
7F001FC0
7F001FC0
7F001FC0
7F001FC0
7F001FC0
7F001FC0
7F001FC0
7F001FC0
7F801FC0
7F803FC0
7FC07FC0
7FE0FFC0
7FFFFFC0
7FFFFFC0
7FFFFFC0
7F7FDFC0
7F3F9FC0
7F0E0000
7F000000
7F000000
7F000000
7F000000
7F000000
7F000000
7F000000
7F000000
7F000000
ENDCHAR

STARTCHAR paragraph
ENCODING 182
SWIDTH 600 0
DWIDTH 30 0
BBX 25 46 3 -9
BITMAP
00FFFE00
03FFFE00
0FFFFE00
1FFC3800
1FFC3800
3FFC3800
3FFC3800
3FFC3800
7FFC3800
7FFC3800
7FFC3800
7FFC3800
3FFC3800
3FFC3800
3FFC3800
1FFC3800
1FFC3800
0FFC3800
03FC3800
007C3800
001C3800
001C3800
001C3800
001C3800
001C3800
001C3800
001C3800
001C3800
001C3800
001C3800
001C3800
001C3800
001C3800
001C3800
001C3800
001C3800
001C3800
001C3800
001C3800
001C3800
001C3800
001C3800
001C3800
001C3800
001C3800
001C3800
ENDCHAR

STARTCHAR periodcentered
ENCODING 183
SWIDTH 280 0
DWIDTH 14 0
BBX 10 8 2 14
BITMAP
0E00
3F00
3F80
7F80
7F80
3F80
3F00
0E00
ENDCHAR

STARTCHAR cedilla
ENCODING 184
SWIDTH 340 0
DWIDTH 17 0
BBX 14 10 1 -9
BITMAP
03C0
07C0
07F0
00F8
00F8
00F8
3FF8
3FF0
7FE0
0F80
ENDCHAR

STARTCHAR onesuperior
ENCODING 185
SWIDTH 336 0
DWIDTH 17 0
BBX 12 18 0 19
BITMAP
0FE0
1FE0
1FE0
3FE0
03E0
03E0
03E0
03E0
03E0
03E0
03E0
03E0
03E0
03E0
03E0
03E0
03E0
03E0
ENDCHAR

STARTCHAR ordmasculine
ENCODING 186
SWIDTH 360 0
DWIDTH 18 0
BBX 18 17 0 20
BITMAP
03F000
0FFC00
1FFE00
3FFF00
3F3F00
3E1F80
7C0F80
7C0F80
7C0F80
7C0F80
7C0F80
3E1F80
3F3F00
3FFF00
1FFE00
0FFC00
03F000
ENDCHAR

STARTCHAR guillemotright
ENCODING 187
SWIDTH 460 0
DWIDTH 23 0
BBX 25 27 -1 0
BITMAP
3F07E000
3F07E000
3F87F000
1F83F000
1F83F000
1FC1F800
0FC1F800
0FC1F800
0FE0FC00
07E0FC00
07E0FC00
07F07E00
03F07E00
03F07E00
03F07E00
07F07E00
07E0FC00
07E0FC00
0FE0FC00
0FC1F800
0FC1F800
1FC1F800
1F83F000
1F83F000
1F83F000
3F07E000
3F07E000
ENDCHAR

STARTCHAR onequarter
ENCODING 188
SWIDTH 840 0
DWIDTH 42 0
BBX 42 38 1 -1
BITMAP
0FE000780000
1FE000780000
1FE000F80000
3FE000F00000
03E000F00000
03E001E00000
03E001E00000
03E001E00000
03E003C00000
03E003C00000
03E007800000
03E007800000
03E007800000
03E00F000000
03E00F000000
03E01E000000
03E01E000000
03E01E000000
03E03C007C00
00003C00FC00
00007800FC00
00007801FC00
00007803FC00
0000F007FC00
0000F00FBC00
0001F00F3C00
0001E01E3C00
0001E03E3C00
0003C07C3C00
0003C0783C00
0007C0FFFF00
000780FFFF00
000780FFFF00
000F00003C00
000F00003C00
001F00003C00
001E00003C00
001E00000000
ENDCHAR

STARTCHAR onehalf
ENCODING 189
SWIDTH 840 0
DWIDTH 42 0
BBX 41 38 1 -1
BITMAP
0FE000780000
1FE000F00000
1FE000F00000
3FE001F00000
03E001E00000
03E001E00000
03E003C00000
03E003C00000
03E007C00000
03E007800000
03E007800000
03E00F000000
03E00F000000
03E01F000000
03E01E000000
03E01E000000
03E03C000000
03E03C000000
03E07C03F000
0000780FFC00
0000781FFE00
0000F03FFE00
0000F03E1F00
0001F03C1F00
0001E07C1F00
0001E0001F00
0003C0003E00
0003C0007E00
0007C000FC00
00078001F800
00078003F000
000F0007E000
000F001FC000
001F003FFF00
001E007FFF00
001E007FFF00
003C007FFF00
003C00000000
ENDCHAR

STARTCHAR threequarters
ENCODING 190
SWIDTH 840 0
DWIDTH 42 0
BBX 44 38 -1 -1
BITMAP
03F0000F0000
0FF8000F0000
1FFC001E0000
1FFE001E0000
3E3E003E0000
3E1E003C0000
001E003C0000
007E00780000
01FC00780000
01FC00F80000
01FE00F00000
003F00F00000
000F81E00000
3C0F81E00000
3C0F83E00000
3E1F83C00000
3FFF03C00000
1FFE07800000
0FFC07800F00
03F00F001F00
00000F003F00
00000F007F00
00001E00FF00
00001E01FF00
00003C03EF00
00003C03CF00
00003C078F00
0000780F0F00
0000781F0F00
0000F03E0F00
0000F03FFFC0
0000F03FFFC0
0001E03FFFC0
0001E0000F00
0003C0000F00
0003C0000F00
0007C0000F00
000780000000
ENDCHAR

STARTCHAR questiondown
ENCODING 191
SWIDTH 560 0
DWIDTH 28 0
BBX 26 38 1 -11
BITMAP
001F0000
003F8000
007FC000
007FC000
007FC000
007FC000
003F8000
001F0000
00000000
00000000
00000000
003F8000
003F8000
003F8000
003F8000
007F8000
007F0000
00FF0000
01FF0000
03FE0000
07FC0000
0FF80000
1FF80000
3FE00000
3FC00000
3F800000
7F000000
7F003F80
7F003F80
7F003F00
3F807F00
3FE1FF00
3FFFFE00
1FFFFE00
0FFFFC00
07FFF800
03FFE000
007F8000
ENDCHAR

STARTCHAR Agrave
ENCODING 192
SWIDTH 740 0
DWIDTH 37 0
BBX 37 48 0 0
BITMAP
003FC00000
001FE00000
000FE00000
0007F00000
0003F00000
0001F80000
0000FC0000
00007C0000
00003E0000
0000000000
0000000000
0000000000
0001FC0000
0001FE0000
0003FE0000
0003FE0000
0007FF0000
0007FF0000
0007FF0000
000FFF8000
000FFF8000
001FFFC000
001FDFC000
001FDFC000
003F8FE000
003F8FE000
003F8FF000
007F07F000
007F07F000
00FF03F800
00FE03F800
00FE03F800
01FC01FC00
01FC01FC00
03FFFFFE00
03FFFFFE00
03FFFFFE00
07FFFFFF00
07FFFFFF00
07FFFFFF80
0FFFFFFF80
0FE0003F80
1FE0001FC0
1FC0001FC0
1FC0001FE0
3F80000FE0
3F80000FE0
7F800007F0
ENDCHAR

STARTCHAR Aacute
ENCODING 193
SWIDTH 740 0
DWIDTH 37 0
BBX 37 48 0 0
BITMAP
00001FE000
00001FC000
00003F8000
00007F0000
00007E0000
0000FC0000
0000F80000
0001F00000
0003E00000
0000000000
0000000000
0000000000
0001FC0000
0001FE0000
0003FE0000
0003FE0000
0007FF0000
0007FF0000
0007FF0000
000FFF8000
000FFF8000
001FFFC000
001FDFC000
001FDFC000
003F8FE000
003F8FE000
003F8FF000
007F07F000
007F07F000
00FF03F800
00FE03F800
00FE03F800
01FC01FC00
01FC01FC00
03FFFFFE00
03FFFFFE00
03FFFFFE00
07FFFFFF00
07FFFFFF00
07FFFFFF80
0FFFFFFF80
0FE0003F80
1FE0001FC0
1FC0001FC0
1FC0001FE0
3F80000FE0
3F80000FE0
7F800007F0
ENDCHAR

STARTCHAR Acircumflex
ENCODING 194
SWIDTH 740 0
DWIDTH 37 0
BBX 37 46 0 0
BITMAP
0000FC0000
0001FE0000
0007FF0000
000FFF8000
001FDFC000
003F8FE000
007F07F000
0000000000
0000000000
0000000000
0001FC0000
0001FE0000
0003FE0000
0003FE0000
0007FF0000
0007FF0000
0007FF0000
000FFF8000
000FFF8000
001FFFC000
001FDFC000
001FDFC000
003F8FE000
003F8FE000
003F8FF000
007F07F000
007F07F000
00FF03F800
00FE03F800
00FE03F800
01FC01FC00
01FC01FC00
03FFFFFE00
03FFFFFE00
03FFFFFE00
07FFFFFF00
07FFFFFF00
07FFFFFF80
0FFFFFFF80
0FE0003F80
1FE0001FC0
1FC0001FC0
1FC0001FE0
3F80000FE0
3F80000FE0
7F800007F0
ENDCHAR

STARTCHAR Atilde
ENCODING 195
SWIDTH 740 0
DWIDTH 37 0
BBX 37 45 0 0
BITMAP
000FC0E000
003FFFE000
00FFFFF000
007FFFF800
003FFFE000
00101FC000
0000000000
0000000000
0000000000
0001FC0000
0001FE0000
0003FE0000
0003FE0000
0007FF0000
0007FF0000
0007FF0000
000FFF8000
000FFF8000
001FFFC000
001FDFC000
001FDFC000
003F8FE000
003F8FE000
003F8FF000
007F07F000
007F07F000
00FF03F800
00FE03F800
00FE03F800
01FC01FC00
01FC01FC00
03FFFFFE00
03FFFFFE00
03FFFFFE00
07FFFFFF00
07FFFFFF00
07FFFFFF80
0FFFFFFF80
0FE0003F80
1FE0001FC0
1FC0001FC0
1FC0001FE0
3F80000FE0
3F80000FE0
7F800007F0
ENDCHAR

STARTCHAR Adieresis
ENCODING 196
SWIDTH 740 0
DWIDTH 37 0
BBX 38 46 -1 0
BITMAP
000E01C000
001F83E000
003F87F000
003F87F000
003F87F000
001F83E000
000E01C000
0000000000
0000000000
0000000000
0001FE0000
0001FE0000
0001FF0000
0003FF0000
0003FF0000
0007FF8000
0007FF8000
0007FF8000
000FFFC000
000FFFC000
001FFFE000
001FCFE000
001FCFE000
003FC7F000
003F87F000
003F87F800
007F03F800
007F03F800
00FF03FC00
00FE01FC00
00FE01FC00
01FC00FE00
01FFFFFE00
03FFFFFF00
03FFFFFF00
03FFFFFF00
07FFFFFF80
07FFFFFF80
07FFFFFFC0
0FE0001FC0
0FE0001FC0
1FE0000FE0
1FC0000FE0
1FC0000FE0
3F800007F0
3F800007F0
ENDCHAR

STARTCHAR Aring
ENCODING 197
SWIDTH 740 0
DWIDTH 37 0
BBX 38 50 0 0
BITMAP
0000780000
0001FE0000
0001FF0000
0003CF0000
0003870000
0003870000
0003870000
0003CF0000
0001FE0000
0001FE0000
0000780000
0000000000
0000000000
0000000000
0000FE0000
0001FE0000
0001FE0000
0003FF0000
0003FF0000
0003FF0000
0007FF8000
0007FF8000
000FFFC000
000FFFC000
000FFFC000
001FCFE000
001FCFE000
001FCFF000
003F87F000
003F87F000
007F83F800
007F03F800
007F03F800
00FE01FC00
00FE01FC00
01FE01FE00
01FFFFFE00
01FFFFFE00
03FFFFFF00
03FFFFFF00
03FFFFFF80
07FFFFFF80
07FFFFFF80
0FF0001FC0
0FE0001FC0
0FE0001FC0
1FC0000FE0
1FC0000FE0
3FC0000FF0
3F800007F0
ENDCHAR

STARTCHAR AE
ENCODING 198
SWIDTH 900 0
DWIDTH 45 0
BBX 44 36 0 0
BITMAP
00001FFFFFE0
00003FFFFFE0
00003FFFFFE0
00007FFFFFE0
00007FFFFFE0
0000FFFFFFE0
0000FFFFFFE0
0001FDFC0000
0001FDFC0000
0003F9FC0000
0003F9FC0000
0007F1FC0000
0007F1FC0000
000FE1FFFFE0
000FE1FFFFE0
000FE1FFFFE0
001FC1FFFFE0
001FC1FFFFE0
003F81FFFFE0
003F81FFFFE0
007F01FC0000
007F01FC0000
00FFFFFC0000
00FFFFFC0000
01FFFFFC0000
01FFFFFC0000
03FFFFFC0000
03FFFFFC0000
07FFFFFC0000
07F001FFFFE0
0FE001FFFFE0
0FE001FFFFE0
1FC001FFFFE0
1FC001FFFFE0
3F8001FFFFE0
3F8001FFFFE0
ENDCHAR

STARTCHAR Ccedilla
ENCODING 199
SWIDTH 780 0
DWIDTH 39 0
BBX 38 46 1 -9
BITMAP
00007F0000
0007FFF000
001FFFFC00
007FFFFF00
00FFFFFF80
01FFFFFFE0
03FFFFFFF0
07FF007FF0
0FFC001FE0
0FF00007C0
1FE0000380
1FC0000100
3FC0000000
3F80000000
3F80000000
7F00000000
7F00000000
7F00000000
7F00000000
7F00000000
7F00000000
7F00000000
7F00000000
3F80000000
3F80000000
3FC0000000
1FC0000100
1FE0000380
1FF00007C0
0FFC001FE0
07FF007FF0
03FFFFFFE0
01FFFFFFC0
00FFFFFF80
007FFFFF00
001FFFFC00
0007FFF000
0000FE0000
0000FE0000
00003F0000
00001F0000
00001F0000
0007FF0000
000FFE0000
000FFC0000
0001F00000
ENDCHAR

STARTCHAR Egrave
ENCODING 200
SWIDTH 520 0
DWIDTH 26 0
BBX 22 48 3 0
BITMAP
1FC000
0FE000
0FE000
07F000
03F800
01F800
00FC00
007C00
003E00
000000
000000
000000
7FFFF8
7FFFF8
7FFFF8
7FFFF8
7FFFF8
7FFFF8
7FFFF8
7F0000
7F0000
7F0000
7F0000
7F0000
7F0000
7FFFF8
7FFFF8
7FFFF8
7FFFF8
7FFFF8
7FFFF8
7FFFF8
7F0000
7F0000
7F0000
7F0000
7F0000
7F0000
7F0000
7F0000
7F0000
7FFFF8
7FFFF8
7FFFF8
7FFFF8
7FFFF8
7FFFF8
7FFFF8
ENDCHAR

STARTCHAR Eacute
ENCODING 201
SWIDTH 520 0
DWIDTH 26 0
BBX 22 48 3 0
BITMAP
000FE0
001FC0
003F80
003F00
007E00
007E00
00FC00
01F800
01F000
000000
000000
000000
7FFFF8
7FFFF8
7FFFF8
7FFFF8
7FFFF8
7FFFF8
7FFFF8
7F0000
7F0000
7F0000
7F0000
7F0000
7F0000
7FFFF8
7FFFF8
7FFFF8
7FFFF8
7FFFF8
7FFFF8
7FFFF8
7F0000
7F0000
7F0000
7F0000
7F0000
7F0000
7F0000
7F0000
7F0000
7FFFF8
7FFFF8
7FFFF8
7FFFF8
7FFFF8
7FFFF8
7FFFF8
ENDCHAR

STARTCHAR Ecircumflex
ENCODING 202
SWIDTH 520 0
DWIDTH 26 0
BBX 23 46 2 0
BITMAP
007E00
00FF00
01FF80
03FFC0
07FFE0
0FE7F0
1FC3F8
000000
000000
000000
3FFFFC
3FFFFC
3FFFFC
3FFFFC
3FFFFC
3FFFFC
3FFFFC
3F8000
3F8000
3F8000
3F8000
3F8000
3F8000
3FFFFC
3FFFFC
3FFFFC
3FFFFC
3FFFFC
3FFFFC
3FFFFC
3F8000
3F8000
3F8000
3F8000
3F8000
3F8000
3F8000
3F8000
3F8000
3FFFFC
3FFFFC
3FFFFC
3FFFFC
3FFFFC
3FFFFC
3FFFFC
ENDCHAR

STARTCHAR Edieresis
ENCODING 203
SWIDTH 520 0
DWIDTH 26 0
BBX 22 46 3 0
BITMAP
0E01C0
1F83E0
3F87F0
3F87F0
3F87F0
1F83E0
0F01C0
000000
000000
000000
7FFFF8
7FFFF8
7FFFF8
7FFFF8
7FFFF8
7FFFF8
7FFFF8
7F0000
7F0000
7F0000
7F0000
7F0000
7F0000
7FFFF8
7FFFF8
7FFFF8
7FFFF8
7FFFF8
7FFFF8
7FFFF8
7F0000
7F0000
7F0000
7F0000
7F0000
7F0000
7F0000
7F0000
7F0000
7FFFF8
7FFFF8
7FFFF8
7FFFF8
7FFFF8
7FFFF8
7FFFF8
ENDCHAR

STARTCHAR Igrave
ENCODING 204
SWIDTH 280 0
DWIDTH 14 0
BBX 17 48 -3 0
BITMAP
3FC000
1FE000
0FE000
07F000
03F000
01F800
00FC00
007C00
003E00
000000
000000
000000
01FC00
01FC00
01FC00
01FC00
01FC00
01FC00
01FC00
01FC00
01FC00
01FC00
01FC00
01FC00
01FC00
01FC00
01FC00
01FC00
01FC00
01FC00
01FC00
01FC00
01FC00
01FC00
01FC00
01FC00
01FC00
01FC00
01FC00
01FC00
01FC00
01FC00
01FC00
01FC00
01FC00
01FC00
01FC00
01FC00
ENDCHAR

STARTCHAR Iacute
ENCODING 205
SWIDTH 280 0
DWIDTH 14 0
BBX 17 48 1 0
BITMAP
01FE00
01FC00
03F800
07F000
07E000
0FC000
1F8000
1F0000
3E0000
000000
000000
000000
1FC000
1FC000
1FC000
1FC000
1FC000
1FC000
1FC000
1FC000
1FC000
1FC000
1FC000
1FC000
1FC000
1FC000
1FC000
1FC000
1FC000
1FC000
1FC000
1FC000
1FC000
1FC000
1FC000
1FC000
1FC000
1FC000
1FC000
1FC000
1FC000
1FC000
1FC000
1FC000
1FC000
1FC000
1FC000
1FC000
ENDCHAR

STARTCHAR Icircumflex
ENCODING 206
SWIDTH 280 0
DWIDTH 14 0
BBX 23 46 -5 0
BITMAP
007E00
00FF00
03FF80
07FFC0
0FEFE0
1FC7F0
3F83F8
000000
000000
000000
00FE00
00FE00
00FE00
00FE00
00FE00
00FE00
00FE00
00FE00
00FE00
00FE00
00FE00
00FE00
00FE00
00FE00
00FE00
00FE00
00FE00
00FE00
00FE00
00FE00
00FE00
00FE00
00FE00
00FE00
00FE00
00FE00
00FE00
00FE00
00FE00
00FE00
00FE00
00FE00
00FE00
00FE00
00FE00
00FE00
ENDCHAR

STARTCHAR Idieresis
ENCODING 207
SWIDTH 280 0
DWIDTH 14 0
BBX 21 46 -3 0
BITMAP
1C0380
3E07C0
7F0FE0
7F0FE0
7F0FE0
3E07C0
1C0380
000000
000000
000000
01FC00
01FC00
01FC00
01FC00
01FC00
01FC00
01FC00
01FC00
01FC00
01FC00
01FC00
01FC00
01FC00
01FC00
01FC00
01FC00
01FC00
01FC00
01FC00
01FC00
01FC00
01FC00
01FC00
01FC00
01FC00
01FC00
01FC00
01FC00
01FC00
01FC00
01FC00
01FC00
01FC00
01FC00
01FC00
01FC00
ENDCHAR

STARTCHAR Gbreve
ENCODING 208
SWIDTH 840 0
DWIDTH 42 0
BBX 40 47 1 -1
BITMAP
003F00FC00
003F81FC00
001FFFF800
001FFFF800
000FFFF000
0003FFC000
0000FF0000
0000000000
0000000000
0000FF8000
0007FFF800
001FFFFE00
007FFFFF80
00FFFFFFC0
01FFFFFFE0
03FFFFFFF0
07FF007FF0
0FFC001FE0
0FF80007C0
1FE0000380
1FE0000100
3FC0000000
3F80000000
3F80000000
7F00000000
7F00000000
7F00000000
7F00000000
7F0007FFFE
7F0007FFFE
7F0007FFFE
7F8007FFFE
3F8007FFFE
3F8007FFFC
3FC00001FC
1FE00003FC
1FF00003F8
0FF80007F8
0FFC000FF0
07FF803FF0
03FFFFFFE0
01FFFFFFC0
00FFFFFF80
007FFFFF00
001FFFFC00
0007FFF000
00007F0000
ENDCHAR

STARTCHAR Ntilde
ENCODING 209
SWIDTH 740 0
DWIDTH 37 0
BBX 31 45 3 0
BITMAP
007E0700
01FFFF00
07FFFF80
03FFFFC0
01FFFF00
0080FE00
00000000
00000000
00000000
7F0001FC
7F8001FC
7F8001FC
7FC001FC
7FE001FC
7FE001FC
7FF001FC
7FF801FC
7FF801FC
7FFC01FC
7FFE01FC
7FFE01FC
7FFF01FC
7F7F01FC
7F7F81FC
7F3FC1FC
7F1FC1FC
7F1FE1FC
7F0FF1FC
7F07F1FC
7F07F9FC
7F03FDFC
7F01FDFC
7F01FFFC
7F00FFFC
7F00FFFC
7F007FFC
7F003FFC
7F003FFC
7F001FFC
7F000FFC
7F000FFC
7F0007FC
7F0003FC
7F0003FC
7F0001FC
ENDCHAR

STARTCHAR Ograve
ENCODING 210
SWIDTH 840 0
DWIDTH 42 0
BBX 39 49 2 -1
BITMAP
001FE00000
000FE00000
0007F00000
0003F80000
0001F80000
0000FC0000
00007C0000
00003E0000
00001F0000
0000000000
0000000000
0000FE0000
0007FFC000
001FFFF000
007FFFFC00
00FFFFFE00
01FFFFFF00
03FFFFFF80
07FF00FFC0
0FFC003FE0
0FF0001FE0
1FE0000FF0
1FC00007F0
3FC00007F8
3F800003F8
3F800003F8
7F000001FC
7F000001FC
7F000001FC
7F000001FC
7F000001FC
7F000001FC
7F000001FC
7F000001FC
3F800003F8
3F800003F8
3FC00007F8
1FC00007F0
1FE0000FF0
0FF0001FF0
0FFC003FE0
07FF00FFC0
03FFFFFF80
01FFFFFF80
00FFFFFE00
007FFFFC00
001FFFF000
0007FFC000
0000FE0000
ENDCHAR

STARTCHAR Oacute
ENCODING 211
SWIDTH 840 0
DWIDTH 42 0
BBX 39 49 2 -1
BITMAP
00000FF000
00000FE000
00001FC000
00003F8000
00003F0000
00007E0000
00007C0000
0000F80000
0001F00000
0000000000
0000000000
0000FE0000
0007FFC000
001FFFF000
007FFFFC00
00FFFFFE00
01FFFFFF00
03FFFFFF80
07FF00FFC0
0FFC003FE0
0FF0001FE0
1FE0000FF0
1FC00007F0
3FC00007F8
3F800003F8
3F800003F8
7F000001FC
7F000001FC
7F000001FC
7F000001FC
7F000001FC
7F000001FC
7F000001FC
7F000001FC
3F800003F8
3F800003F8
3FC00007F8
1FC00007F0
1FE0000FF0
0FF0001FF0
0FFC003FE0
07FF00FFC0
03FFFFFF80
01FFFFFF80
00FFFFFE00
007FFFFC00
001FFFF000
0007FFC000
0000FE0000
ENDCHAR

STARTCHAR Ocircumflex
ENCODING 212
SWIDTH 840 0
DWIDTH 42 0
BBX 39 47 2 -1
BITMAP
00007C0000
0000FE0000
0001FF0000
0003FFC000
0007EFE000
001FC7F000
003F83F800
0000000000
0000000000
0000FE0000
0007FFC000
001FFFF000
007FFFFC00
00FFFFFE00
01FFFFFF00
03FFFFFF80
07FF00FFC0
0FFC003FE0
0FF0001FE0
1FE0000FF0
1FC00007F0
3FC00007F8
3F800003F8
3F800003F8
7F000001FC
7F000001FC
7F000001FC
7F000001FC
7F000001FC
7F000001FC
7F000001FC
7F000001FC
3F800003F8
3F800003F8
3FC00007F8
1FC00007F0
1FE0000FF0
0FF0001FF0
0FFC003FE0
07FF00FFC0
03FFFFFF80
01FFFFFF80
00FFFFFE00
007FFFFC00
001FFFF000
0007FFC000
0000FE0000
ENDCHAR

STARTCHAR Otilde
ENCODING 213
SWIDTH 840 0
DWIDTH 42 0
BBX 39 46 2 -1
BITMAP
0007E07000
001FFFF000
003FFFF800
003FFFFC00
001FFFF000
000C0FE000
0000000000
0000000000
0000FE0000
0007FFC000
001FFFF000
007FFFFC00
00FFFFFE00
01FFFFFF00
03FFFFFF80
07FF00FFC0
0FFC003FE0
0FF0001FE0
1FE0000FF0
1FC00007F0
3FC00007F8
3F800003F8
3F800003F8
7F000001FC
7F000001FC
7F000001FC
7F000001FC
7F000001FC
7F000001FC
7F000001FC
7F000001FC
3F800003F8
3F800003F8
3FC00007F8
1FC00007F0
1FE0000FF0
0FF0001FF0
0FFC003FE0
07FF00FFC0
03FFFFFF80
01FFFFFF80
00FFFFFE00
007FFFFC00
001FFFF000
0007FFC000
0000FE0000
ENDCHAR

STARTCHAR Odieresis
ENCODING 214
SWIDTH 840 0
DWIDTH 42 0
BBX 40 47 1 -1
BITMAP
000700E000
000FC1F800
001FC3F800
001FC3F800
001FC3F800
000FC1F800
000780F000
0000000000
0000000000
00007F0000
0007FFE000
001FFFF800
007FFFFE00
00FFFFFF00
01FFFFFF80
03FFFFFFC0
07FF00FFE0
0FFC003FF0
0FF0000FF0
1FE00007F8
1FC00003F8
3FC00003FC
3F800001FC
3F800001FC
7F800000FE
7F000000FE
7F000000FE
7F000000FE
7F000000FE
7F000000FE
7F000000FE
7F800000FE
3F800001FC
3F800001FC
3FC00003FC
1FE00003F8
1FE00007F8
0FF0000FF8
0FFC003FF0
07FF00FFE0
03FFFFFFC0
01FFFFFF80
00FFFFFF00
007FFFFE00
001FFFF800
0007FFE000
00007F0000
ENDCHAR

STARTCHAR multiply
ENCODING 215
SWIDTH 600 0
DWIDTH 30 0
BBX 26 22 2 7
BITMAP
0C000800
1E001E00
3F003F00
3F807F00
1FC0FE00
0FE1FC00
07F3F800
03FFF000
01FFE000
00FFC000
007F8000
007F8000
00FFC000
01FFE000
03FFF000
07F3F800
0FE1FC00
1FC0FE00
3F807F00
3F003F00
1E001E00
0C000C00
ENDCHAR

STARTCHAR Oslash
ENCODING 216
SWIDTH 840 0
DWIDTH 42 0
BBX 39 40 2 -2
BITMAP
0000000020
0000FE0070
0007FFC0F8
001FFFF1F0
007FFFFFF0
00FFFFFFE0
01FFFFFFC0
03FFFFFF80
07FE01FFC0
0FF8007FE0
0FF0007FE0
1FE0007FF0
1FC000FFF8
3FC001F7F8
3F8003E3F8
3F8007C3F8
7F000FC1FC
7F000F81FC
7F001F01FC
7F003E01FC
7F007C01FC
7F00F801FC
7F01F801FC
7F03F001FC
3F83E003F8
3F87C003F8
3FCF8007F8
1FDF0007F0
1FFE000FF0
0FFE001FF0
0FFC003FE0
07FF00FFC0
03FFFFFF80
03FFFFFF80
07FFFFFE00
0FFFFFFC00
0F9FFFF000
1F07FFC000
1E00FE0000
0C00000000
ENDCHAR

STARTCHAR Ugrave
ENCODING 217
SWIDTH 640 0
DWIDTH 32 0
BBX 26 49 3 -1
BITMAP
07F00000
03F80000
01FC0000
00FC0000
007E0000
003E0000
001F0000
001F8000
000F8000
00000000
00000000
00000000
7F003F80
7F003F80
7F003F80
7F003F80
7F003F80
7F003F80
7F003F80
7F003F80
7F003F80
7F003F80
7F003F80
7F003F80
7F003F80
7F003F80
7F003F80
7F003F80
7F003F80
7F003F80
7F003F80
7F003F80
7F003F80
7F003F80
7F003F80
7F003F80
7F003F80
7F003F80
7F003F80
7F003F80
3F807F00
3FC0FF00
3FFFFF00
1FFFFE00
0FFFFC00
07FFF800
03FFF000
01FFE000
003F0000
ENDCHAR

STARTCHAR Uacute
ENCODING 218
SWIDTH 640 0
DWIDTH 32 0
BBX 26 49 3 -1
BITMAP
0003F800
0007F000
000FE000
000FC000
001F8000
001F0000
003F0000
003E0000
007C0000
00000000
00000000
00000000
7F003F80
7F003F80
7F003F80
7F003F80
7F003F80
7F003F80
7F003F80
7F003F80
7F003F80
7F003F80
7F003F80
7F003F80
7F003F80
7F003F80
7F003F80
7F003F80
7F003F80
7F003F80
7F003F80
7F003F80
7F003F80
7F003F80
7F003F80
7F003F80
7F003F80
7F003F80
7F003F80
7F003F80
3F807F00
3FC0FF00
3FFFFF00
1FFFFE00
0FFFFC00
07FFF800
03FFF000
01FFE000
003F0000
ENDCHAR

STARTCHAR Ucircumflex
ENCODING 219
SWIDTH 640 0
DWIDTH 32 0
BBX 26 47 3 -1
BITMAP
003F0000
007F8000
00FFC000
01FFE000
03FBF000
07F3F800
0FE1FC00
00000000
00000000
00000000
7F003F80
7F003F80
7F003F80
7F003F80
7F003F80
7F003F80
7F003F80
7F003F80
7F003F80
7F003F80
7F003F80
7F003F80
7F003F80
7F003F80
7F003F80
7F003F80
7F003F80
7F003F80
7F003F80
7F003F80
7F003F80
7F003F80
7F003F80
7F003F80
7F003F80
7F003F80
7F003F80
7F003F80
3F807F00
3FC0FF00
3FFFFF00
1FFFFE00
0FFFFC00
07FFF800
03FFF000
01FFE000
003F0000
ENDCHAR

STARTCHAR Udieresis
ENCODING 220
SWIDTH 640 0
DWIDTH 32 0
BBX 26 47 3 -1
BITMAP
03807000
07C0F800
0FE1FC00
0FE1FC00
0FE1FC00
07C0F800
03807000
00000000
00000000
00000000
7F003F80
7F003F80
7F003F80
7F003F80
7F003F80
7F003F80
7F003F80
7F003F80
7F003F80
7F003F80
7F003F80
7F003F80
7F003F80
7F003F80
7F003F80
7F003F80
7F003F80
7F003F80
7F003F80
7F003F80
7F003F80
7F003F80
7F003F80
7F003F80
7F003F80
7F003F80
7F003F80
7F003F80
3F807F00
3FC0FF00
3FFFFF00
1FFFFE00
0FFFFC00
07FFF800
03FFF000
01FFE000
003F0000
ENDCHAR

STARTCHAR Idotaccent
ENCODING 221
SWIDTH 280 0
DWIDTH 14 0
BBX 10 46 3 0
BITMAP
1C00
3E00
7F00
7F00
7F00
3E00
1C00
0000
0000
0000
7F00
7F00
7F00
7F00
7F00
7F00
7F00
7F00
7F00
7F00
7F00
7F00
7F00
7F00
7F00
7F00
7F00
7F00
7F00
7F00
7F00
7F00
7F00
7F00
7F00
7F00
7F00
7F00
7F00
7F00
7F00
7F00
7F00
7F00
7F00
7F00
ENDCHAR

STARTCHAR Scedilla
ENCODING 222
SWIDTH 520 0
DWIDTH 26 0
BBX 26 47 -1 -10
BITMAP
001F0000
00FFE000
01FFF000
07FFF800
07FFFC00
0FFFFE00
0FFFFE00
1FE0FC00
1FC07800
1FC03000
1FC00000
1FE00000
0FF00000
0FF80000
07FE0000
03FF0000
01FF8000
00FFC000
007FE000
003FF000
001FF800
000FFC00
0007FE00
0001FE00
0000FF00
00007F00
00007F00
03003F00
07003F00
1F807F00
7FC07F00
3FF1FF00
1FFFFE00
1FFFFE00
0FFFFC00
07FFF800
03FFF000
007FC000
001F8000
001FC000
0003E000
0003E000
0003E000
00FFE000
01FFC000
01FF8000
003E0000
ENDCHAR

STARTCHAR germandbls
ENCODING 223
SWIDTH 600 0
DWIDTH 30 0
BBX 27 38 2 -1
BITMAP
003F8000
01FFF000
03FFF800
07FFFC00
0FFFFE00
1FFFFE00
1FE1FE00
3FC0FF00
3F807F00
3F807F00
3F007F00
7F007E00
7F007E00
7F01FE00
7F0FFC00
7F0FF000
7F0FC000
7F0FC000
7F0FF800
7F0FFC00
7F03FE00
7F007F00
7F003F80
7F003F80
7F001F80
7F001FC0
7F001FC0
7F001FC0
7F001FC0
7F003FC0
7F003F80
7F10FF80
7F1FFF80
7F1FFF00
7F1FFE00
7F1FFC00
7F1FF800
001FE000
ENDCHAR

STARTCHAR agrave
ENCODING 224
SWIDTH 660 0
DWIDTH 33 0
BBX 31 43 1 -1
BITMAP
03FC0000
01FE0000
00FE0000
007F0000
003F8000
001F8000
000FC000
0007E000
0003E000
0001F000
00000000
00000000
00000000
00000000
003FC000
00FFF3F8
01FFFBF8
07FFFFF8
07FFFFF8
0FFFFFF8
1FF83FF8
1FE00FF8
3FC007F8
3F8007F8
3F8003F8
7F0003F8
7F0001F8
7F0001F8
7F0001F8
7F0001F8
7F0001F8
7F0003F8
3F8003F8
3F8007F8
3FC007F8
1FE00FF8
1FF83FF8
0FFFFFF8
07FFFFF8
03FFFFF8
01FFFBF8
00FFF3F8
001FC000
ENDCHAR

STARTCHAR aacute
ENCODING 225
SWIDTH 660 0
DWIDTH 33 0
BBX 31 43 1 -1
BITMAP
0000FF00
0000FE00
0001FC00
0003F800
0003F000
0007E000
0007C000
000F8000
001F8000
001F0000
00000000
00000000
00000000
00000000
003FC000
00FFF3F8
01FFFBF8
07FFFFF8
07FFFFF8
0FFFFFF8
1FF83FF8
1FE00FF8
3FC007F8
3F8007F8
3F8003F8
7F0003F8
7F0001F8
7F0001F8
7F0001F8
7F0001F8
7F0001F8
7F0003F8
3F8003F8
3F8007F8
3FC007F8
1FE00FF8
1FF83FF8
0FFFFFF8
07FFFFF8
03FFFFF8
01FFFBF8
00FFF3F8
001FC000
ENDCHAR

STARTCHAR acircumflex
ENCODING 226
SWIDTH 660 0
DWIDTH 33 0
BBX 31 40 1 -1
BITMAP
000FE000
001FF000
003FF800
007FFC00
01FCFE00
03FC7F00
07F83F80
00000000
00000000
00000000
00000000
003FC000
00FFF3F8
01FFFBF8
07FFFFF8
07FFFFF8
0FFFFFF8
1FF83FF8
1FE00FF8
3FC007F8
3F8007F8
3F8003F8
7F0003F8
7F0001F8
7F0001F8
7F0001F8
7F0001F8
7F0001F8
7F0003F8
3F8003F8
3F8007F8
3FC007F8
1FE00FF8
1FF83FF8
0FFFFFF8
07FFFFF8
03FFFFF8
01FFFBF8
00FFF3F8
001FC000
ENDCHAR

STARTCHAR atilde
ENCODING 227
SWIDTH 660 0
DWIDTH 33 0
BBX 31 39 1 -1
BITMAP
00FE0700
03FFFF00
07FFFF80
03FFFFC0
03FFFF00
0180FC00
00000000
00000000
00000000
00000000
003FC000
00FFF3F8
01FFFBF8
07FFFFF8
07FFFFF8
0FFFFFF8
1FF83FF8
1FE00FF8
3FC007F8
3F8007F8
3F8003F8
7F0003F8
7F0001F8
7F0001F8
7F0001F8
7F0001F8
7F0001F8
7F0003F8
3F8003F8
3F8007F8
3FC007F8
1FE00FF8
1FF83FF8
0FFFFFF8
07FFFFF8
03FFFFF8
01FFFBF8
00FFF3F8
001FC000
ENDCHAR

STARTCHAR adieresis
ENCODING 228
SWIDTH 660 0
DWIDTH 33 0
BBX 31 40 1 -1
BITMAP
00E01C00
01F03E00
03F87F00
03F87F00
03F87F00
01F03E00
00E01C00
00000000
00000000
00000000
00000000
003F8000
00FFF3F8
03FFFBF8
07FFFFF8
0FFFFFF8
0FFFFFF8
1FF83FF8
1FE00FF8
3FC007F8
3F8007F8
3F8003F8
7F0003F8
7F0001F8
7F0001F8
7F0001F8
7F0001F8
7F0001F8
7F0003F8
3F8003F8
3F8007F8
3FC007F8
1FE00FF8
1FF83FF8
0FFFFFF8
07FFFFF8
03FFFFF8
01FFFBF8
00FFF3F8
003F8000
ENDCHAR

STARTCHAR aring
ENCODING 229
SWIDTH 660 0
DWIDTH 33 0
BBX 31 44 1 -1
BITMAP
00078000
001FE000
001FF000
003CF000
00387000
00387000
00387000
003CF000
001FE000
001FE000
00078000
00000000
00000000
00000000
00000000
001F8000
00FFE3F8
01FFFBF8
03FFFFF8
07FFFFF8
0FFFFFF8
1FF87FF8
1FE01FF8
3FC00FF8
3F8007F8
3F8003F8
7F0003F8
7F0003F8
7F0001F8
7F0001F8
7F0001F8
7F0003F8
7F0003F8
3F8003F8
3F8007F8
3FC00FF8
1FE01FF8
1FF87FF8
0FFFFFF8
07FFFFF8
03FFFFF8
01FFFBF8
00FFF3F8
001F8000
ENDCHAR

STARTCHAR ae
ENCODING 230
SWIDTH 1080 0
DWIDTH 54 0
BBX 52 29 1 -1
BITMAP
001FC0007F0000
00FFF1F9FFE000
01FFF9FFFFF800
03FFFDFFFFFC00
07FFFFFFFFFE00
0FFFFFFFFFFF00
1FFC7FFFC0FF80
1FF01FFF007F80
3FC007FE001FC0
3FC007FE001FC0
3F8003FC000FC0
3F0003FC000FE0
7F0001FFFFFFE0
7F0001FFFFFFE0
7F0001FFFFFFE0
7F0001FFFFFFE0
7F0001FFFFFFE0
7F0001F8000000
3F8003FC000000
3F8003FC000000
3FC007FE000000
1FE00FFF003C00
1FF83FFFC07F00
0FFFFFFFFFFF80
0FFFFFFFFFFF00
07FFFDFFFFFE00
03FFF9FFFFFC00
00FFF1F9FFF000
003FC0003F8000
ENDCHAR

STARTCHAR ccedilla
ENCODING 231
SWIDTH 640 0
DWIDTH 32 0
BBX 30 38 1 -10
BITMAP
000FF000
007FFE00
01FFFF80
03FFFFC0
07FFFFE0
0FFFFFF0
1FFC3FE0
1FE00FC0
3FC00300
3F800000
3F800000
7F000000
7F000000
7F000000
7F000000
7F000000
7F000000
7F000000
3F800000
3F800000
3FC00300
1FE00F80
1FF83FE0
0FFFFFF0
07FFFFE0
03FFFFC0
01FFFF80
007FFE00
001FF000
000F8000
000FE000
0001F000
0001F000
0001F000
007FF000
007FE000
007FC000
001F0000
ENDCHAR

STARTCHAR egrave
ENCODING 232
SWIDTH 640 0
DWIDTH 32 0
BBX 31 43 0 -1
BITMAP
01FE0000
00FE0000
007F0000
003F8000
001F8000
001FC000
000FC000
0007E000
0003F000
0001F000
00000000
00000000
00000000
00000000
0007E000
003FFC00
00FFFF00
03FFFF80
07FFFFC0
07FFFFE0
0FF01FF0
1FE007F0
1FC003F8
1F8001F8
3F8001F8
3FFFFFFC
3FFFFFFC
3FFFFFFC
3FFFFFFC
3FFFFFFC
3F000000
3F800000
3F800000
1F800000
1FC00200
1FE00780
0FF83FE0
07FFFFF0
07FFFFE0
03FFFFC0
00FFFF80
007FFE00
000FF000
ENDCHAR

STARTCHAR eacute
ENCODING 233
SWIDTH 640 0
DWIDTH 32 0
BBX 31 43 0 -1
BITMAP
00007F80
0000FF00
0000FE00
0001FC00
0001F800
0003F000
0007E000
0007C000
000F8000
001F0000
00000000
00000000
00000000
00000000
0007E000
003FFC00
00FFFF00
03FFFF80
07FFFFC0
07FFFFE0
0FF01FF0
1FE007F0
1FC003F8
1F8001F8
3F8001F8
3FFFFFFC
3FFFFFFC
3FFFFFFC
3FFFFFFC
3FFFFFFC
3F000000
3F800000
3F800000
1F800000
1FC00200
1FE00780
0FF83FE0
07FFFFF0
07FFFFE0
03FFFFC0
00FFFF80
007FFE00
000FF000
ENDCHAR

STARTCHAR ecircumflex
ENCODING 234
SWIDTH 640 0
DWIDTH 32 0
BBX 31 40 0 -1
BITMAP
0007E000
000FF000
001FF800
003FFC00
00FEFE00
01FC7F00
03FC3F80
00000000
00000000
00000000
00000000
0007E000
003FFC00
00FFFF00
03FFFF80
07FFFFC0
07FFFFE0
0FF01FF0
1FE007F0
1FC003F8
1F8001F8
3F8001F8
3FFFFFFC
3FFFFFFC
3FFFFFFC
3FFFFFFC
3FFFFFFC
3F000000
3F800000
3F800000
1F800000
1FC00200
1FE00780
0FF83FE0
07FFFFF0
07FFFFE0
03FFFFC0
00FFFF80
007FFE00
000FF000
ENDCHAR

STARTCHAR edieresis
ENCODING 235
SWIDTH 640 0
DWIDTH 32 0
BBX 31 40 1 -1
BITMAP
00E03C00
01F07E00
03F87F00
03F87F00
03F87F00
01F07E00
00E03C00
00000000
00000000
00000000
00000000
000FC000
007FF800
01FFFE00
03FFFF00
07FFFF80
0FFFFFC0
1FE03FE0
1FC00FE0
3F8007F0
3F0003F0
7F0003F8
7FFFFFF8
7FFFFFF8
7FFFFFF8
7FFFFFF8
7FFFFFF8
7E000000
7F000000
7F000000
3F000000
3F800400
1FC00F00
1FF03FC0
0FFFFFE0
07FFFFC0
03FFFF80
01FFFF00
007FFC00
001FE000
ENDCHAR

STARTCHAR igrave
ENCODING 236
SWIDTH 240 0
DWIDTH 12 0
BBX 17 41 -5 0
BITMAP
3FC000
1FE000
0FE000
07F000
03F000
01F800
00FC00
007C00
003E00
000000
000000
000000
000000
000000
01FC00
01FC00
01FC00
01FC00
01FC00
01FC00
01FC00
01FC00
01FC00
01FC00
01FC00
01FC00
01FC00
01FC00
01FC00
01FC00
01FC00
01FC00
01FC00
01FC00
01FC00
01FC00
01FC00
01FC00
01FC00
01FC00
01FC00
ENDCHAR

STARTCHAR iacute
ENCODING 237
SWIDTH 240 0
DWIDTH 12 0
BBX 17 41 -1 0
BITMAP
01FE00
01FC00
03F800
07F000
07E000
0FC000
1F8000
1F0000
3E0000
000000
000000
000000
000000
000000
1FC000
1FC000
1FC000
1FC000
1FC000
1FC000
1FC000
1FC000
1FC000
1FC000
1FC000
1FC000
1FC000
1FC000
1FC000
1FC000
1FC000
1FC000
1FC000
1FC000
1FC000
1FC000
1FC000
1FC000
1FC000
1FC000
1FC000
ENDCHAR

STARTCHAR icircumflex
ENCODING 238
SWIDTH 240 0
DWIDTH 12 0
BBX 23 39 -6 0
BITMAP
007E00
00FF00
03FF80
07FFC0
0FEFE0
1FC7F0
3F83F8
000000
000000
000000
000000
000000
00FE00
00FE00
00FE00
00FE00
00FE00
00FE00
00FE00
00FE00
00FE00
00FE00
00FE00
00FE00
00FE00
00FE00
00FE00
00FE00
00FE00
00FE00
00FE00
00FE00
00FE00
00FE00
00FE00
00FE00
00FE00
00FE00
00FE00
ENDCHAR

STARTCHAR idieresis
ENCODING 239
SWIDTH 240 0
DWIDTH 12 0
BBX 21 39 -4 0
BITMAP
1C0380
3E07C0
7F0FE0
7F0FE0
7F0FE0
3E07C0
1C0380
000000
000000
000000
000000
000000
01FC00
01FC00
01FC00
01FC00
01FC00
01FC00
01FC00
01FC00
01FC00
01FC00
01FC00
01FC00
01FC00
01FC00
01FC00
01FC00
01FC00
01FC00
01FC00
01FC00
01FC00
01FC00
01FC00
01FC00
01FC00
01FC00
01FC00
ENDCHAR

STARTCHAR gbreve
ENCODING 240
SWIDTH 660 0
DWIDTH 33 0
BBX 31 50 1 -11
BITMAP
07E01F80
07F03F80
03FFFF80
01FFFF00
01FFFE00
007FF800
001FE000
00000000
00000000
00000000
00000000
003FC000
00FFF3F8
03FFFBF8
07FFFFF8
0FFFFFF8
0FFFFFF8
1FF83FF8
1FE00FF8
3FC007F8
3F8003F8
3F8003F8
7F0003F8
7F0001F8
7F0001F8
7F0001F8
7F0001F8
7F0003F8
3F8003F8
3F8003F8
3FC007F8
1FE00FF8
1FF83FF8
0FFFFFF8
0FFFFFF8
07FFFFF8
03FFFFF8
00FFF3F8
003FC3F8
000003F8
000003F8
7F8007F8
3FC00FF0
3FF03FF0
1FFFFFE0
0FFFFFE0
0FFFFFC0
03FFFF00
01FFFE00
003FF000
ENDCHAR

STARTCHAR ntilde
ENCODING 241
SWIDTH 600 0
DWIDTH 30 0
BBX 26 38 2 0
BITMAP
03F81800
0FFFFC00
1FFFFE00
0FFFFE00
0FFFFC00
0607F000
00000000
00000000
00000000
00000000
000FE000
7F3FF800
7F7FFC00
7FFFFE00
7FFFFF00
7FFFFF00
7FF0FF80
7FC07F80
7F807F80
7F803F80
7F003F80
7F003F80
7F003F80
7F003F80
7F003F80
7F003F80
7F003F80
7F003F80
7F003F80
7F003F80
7F003F80
7F003F80
7F003F80
7F003F80
7F003F80
7F003F80
7F003F80
7F003F80
ENDCHAR

STARTCHAR ograve
ENCODING 242
SWIDTH 640 0
DWIDTH 32 0
BBX 30 43 1 -1
BITMAP
03FC0000
01FE0000
00FE0000
007F0000
003F8000
001F8000
000FC000
0007C000
0003E000
0001F000
00000000
00000000
00000000
00000000
001FE000
007FF800
01FFFE00
03FFFF00
07FFFF80
0FFFFFC0
1FF87FE0
1FE01FE0
3FC00FF0
3F8007F0
3F8007F0
3F0003F8
7F0003F8
7F0003F8
7F0003F8
7F0003F8
7F0003F8
7F0003F8
3F8007F0
3F8007F0
3FC00FF0
1FE01FE0
1FFCFFE0
0FFFFFC0
07FFFF80
03FFFF00
01FFFE00
007FF800
001FE000
ENDCHAR

STARTCHAR oacute
ENCODING 243
SWIDTH 640 0
DWIDTH 32 0
BBX 30 43 1 -1
BITMAP
0000FF00
0001FE00
0001FC00
0003F800
0003F000
0007E000
000FC000
000F8000
001F0000
003E0000
00000000
00000000
00000000
00000000
001FE000
007FF800
01FFFE00
03FFFF00
07FFFF80
0FFFFFC0
1FF87FE0
1FE01FE0
3FC00FF0
3F8007F0
3F8007F0
3F0003F8
7F0003F8
7F0003F8
7F0003F8
7F0003F8
7F0003F8
7F0003F8
3F8007F0
3F8007F0
3FC00FF0
1FE01FE0
1FFCFFE0
0FFFFFC0
07FFFF80
03FFFF00
01FFFE00
007FF800
001FE000
ENDCHAR

STARTCHAR ocircumflex
ENCODING 244
SWIDTH 640 0
DWIDTH 32 0
BBX 30 40 1 -1
BITMAP
000FE000
001FF000
003FF800
00FFFC00
01FCFE00
03F87F00
07F03F80
00000000
00000000
00000000
00000000
001FE000
007FF800
01FFFE00
03FFFF00
07FFFF80
0FFFFFC0
1FF87FE0
1FE01FE0
3FC00FF0
3F8007F0
3F8007F0
3F0003F8
7F0003F8
7F0003F8
7F0003F8
7F0003F8
7F0003F8
7F0003F8
3F8007F0
3F8007F0
3FC00FF0
1FE01FE0
1FFCFFE0
0FFFFFC0
07FFFF80
03FFFF00
01FFFE00
007FF800
001FE000
ENDCHAR

STARTCHAR otilde
ENCODING 245
SWIDTH 640 0
DWIDTH 32 0
BBX 30 39 1 -1
BITMAP
00FE0600
03FFFF00
07FFFF00
03FFFF80
03FFFF00
0180FC00
00000000
00000000
00000000
00000000
001FE000
007FF800
01FFFE00
03FFFF00
07FFFF80
0FFFFFC0
1FF87FE0
1FE01FE0
3FC00FF0
3F8007F0
3F8007F0
3F0003F8
7F0003F8
7F0003F8
7F0003F8
7F0003F8
7F0003F8
7F0003F8
3F8007F0
3F8007F0
3FC00FF0
1FE01FE0
1FFCFFE0
0FFFFFC0
07FFFF80
03FFFF00
01FFFE00
007FF800
001FE000
ENDCHAR

STARTCHAR odieresis
ENCODING 246
SWIDTH 640 0
DWIDTH 32 0
BBX 30 40 1 -1
BITMAP
00E01C00
01F03E00
03F87F00
03F87F00
03F87F00
01F03E00
00E01C00
00000000
00000000
00000000
00000000
001FE000
007FF800
01FFFE00
03FFFF00
07FFFF80
0FFFFFC0
1FF87FE0
1FE01FE0
3FC00FF0
3F8007F0
3F8007F0
3F0003F8
7F0003F8
7F0003F8
7F0003F8
7F0003F8
7F0003F8
7F0003F8
3F8007F0
3F8007F0
3FC00FF0
1FE01FE0
1FFCFFE0
0FFFFFC0
07FFFF80
03FFFF00
01FFFE00
007FF800
001FE000
ENDCHAR

STARTCHAR divide
ENCODING 247
SWIDTH 600 0
DWIDTH 30 0
BBX 28 29 1 4
BITMAP
003FC000
003FC000
003FC000
003FC000
003FC000
003FC000
003FC000
003FC000
00000000
00000000
00000000
00000000
3FFFFFC0
3FFFFFC0
3FFFFFC0
3FFFFFC0
3FFFFFC0
3FFFFFC0
00000000
00000000
00000000
003FC000
003FC000
003FC000
003FC000
003FC000
003FC000
003FC000
003FC000
ENDCHAR

STARTCHAR oslash
ENCODING 248
SWIDTH 660 0
DWIDTH 33 0
BBX 30 32 2 -3
BITMAP
00000060
001FE070
007FF8F8
01FFFFF0
03FFFFE0
07FFFFC0
0FFFFFC0
1FF8FFE0
1FE01FE0
3FC03FF0
3F807FF0
3F80FFF0
3F01FBF8
7F03F3F8
7F03E3F8
7F07C3F8
7F0F83F8
7F1F03F8
3F3F03F8
3FFE07F0
3FFC07F0
3FF80FF0
1FF01FE0
1FF8FFE0
0FFFFFC0
0FFFFF80
0FFFFF00
1FFFFE00
3E7FF800
3C1FE000
18000000
08000000
ENDCHAR

STARTCHAR ugrave
ENCODING 249
SWIDTH 600 0
DWIDTH 30 0
BBX 26 42 2 -1
BITMAP
07F00000
03F80000
01FC0000
00FC0000
00FE0000
007F0000
003F0000
001F8000
000F8000
00000000
00000000
00000000
00000000
00000000
7F003F80
7F003F80
7F003F80
7F003F80
7F003F80
7F003F80
7F003F80
7F003F80
7F003F80
7F003F80
7F003F80
7F003F80
7F003F80
7F003F80
7F003F80
7F003F80
7F003F80
7F003F80
7F803F00
3F807F00
3FC07F00
3FE1FF00
1FFFFE00
1FFFFE00
0FFFFC00
07FFF800
01FFE000
007F8000
ENDCHAR

STARTCHAR uacute
ENCODING 250
SWIDTH 600 0
DWIDTH 30 0
BBX 26 42 2 -1
BITMAP
0003F800
0007F000
000FE000
000FE000
001FC000
001F8000
003F0000
007E0000
007C0000
00000000
00000000
00000000
00000000
00000000
7F003F80
7F003F80
7F003F80
7F003F80
7F003F80
7F003F80
7F003F80
7F003F80
7F003F80
7F003F80
7F003F80
7F003F80
7F003F80
7F003F80
7F003F80
7F003F80
7F003F80
7F003F80
7F803F00
3F807F00
3FC07F00
3FE1FF00
1FFFFE00
1FFFFE00
0FFFFC00
07FFF800
01FFE000
007F8000
ENDCHAR

STARTCHAR ucircumflex
ENCODING 251
SWIDTH 600 0
DWIDTH 30 0
BBX 26 40 2 -1
BITMAP
003F0000
007F8000
00FFC000
01FFE000
03FFF000
07F3F800
0FE1FE00
00000000
00000000
00000000
00000000
00000000
7F003F80
7F003F80
7F003F80
7F003F80
7F003F80
7F003F80
7F003F80
7F003F80
7F003F80
7F003F80
7F003F80
7F003F80
7F003F80
7F003F80
7F003F80
7F003F80
7F003F80
7F003F80
7F803F00
3F807F00
3FC07F00
3FE1FF00
1FFFFE00
1FFFFE00
0FFFFC00
07FFF800
01FFE000
007F8000
ENDCHAR

STARTCHAR udieresis
ENCODING 252
SWIDTH 600 0
DWIDTH 30 0
BBX 26 40 2 -1
BITMAP
03807000
07C0F800
0FE1FC00
0FE1FC00
0FE1FC00
07C0F800
03807000
00000000
00000000
00000000
00000000
00000000
7F003F80
7F003F80
7F003F80
7F003F80
7F003F80
7F003F80
7F003F80
7F003F80
7F003F80
7F003F80
7F003F80
7F003F80
7F003F80
7F003F80
7F003F80
7F003F80
7F003F80
7F003F80
7F803F00
3F807F00
3FC07F00
3FE1FF00
1FFFFE00
1FFFFE00
0FFFFC00
07FFF800
01FFE000
007F8000
ENDCHAR

STARTCHAR dotlessi
ENCODING 253
SWIDTH 240 0
DWIDTH 12 0
BBX 9 27 2 0
BITMAP
7F00
7F00
7F00
7F00
7F00
7F00
7F00
7F00
7F00
7F00
7F00
7F00
7F00
7F00
7F00
7F00
7F00
7F00
7F00
7F00
7F00
7F00
7F00
7F00
7F00
7F00
7F00
ENDCHAR

STARTCHAR scedilla
ENCODING 254
SWIDTH 440 0
DWIDTH 22 0
BBX 23 38 -1 -10
BITMAP
00FE00
03FF80
07FFE0
0FFFF0
0FFFF8
1FFFF0
1FC7E0
1F81C0
1F8080
1FC000
1FF000
0FFC00
0FFF00
07FFC0
01FFE0
00FFF0
003FF0
000FF8
0007F8
0003F8
0601F8
0F01F8
0FC7F8
1FFFF8
3FFFF0
1FFFE0
0FFFE0
07FF80
00FE00
007E00
007F00
000F80
000F80
000F80
03FF80
03FF00
07FE00
00F800
ENDCHAR

STARTCHAR ydieresis
ENCODING 255
SWIDTH 580 0
DWIDTH 29 0
BBX 32 49 -1 -10
BITMAP
00700E00
00FC1F00
01FC3F80
01FC3F80
01FC3F80
00FC1F00
00700E00
00000000
00000000
00000000
00000000
00000000
3F8001FC
3F8001FC
1FC003F8
1FC003F8
0FE007F0
0FE007F0
0FE00FE0
07F00FE0
07F00FC0
03F81FC0
03F81F80
03F83F80
01FC3F80
01FC7F00
00FE7F00
00FEFE00
00FEFE00
007FFC00
007FFC00
003FF800
003FF800
001FF000
001FF000
001FF000
000FE000
000FE000
001FC000
001FC000
003F8000
003F8000
007F0000
007F0000
007E0000
00FE0000
00FE0000
01FC0000
01FC0000
ENDCHAR
ENDFONT
